<?xml version="1.0" encoding="utf-8"?>
<!-- Generator: Adobe Illustrator 21.1.0, SVG Export Plug-In . SVG Version: 6.00 Build 0)  -->
<svg version="1.1" id="Layer_1" xmlns="http://www.w3.org/2000/svg" xmlns:xlink="http://www.w3.org/1999/xlink" x="0px" y="0px"
	 viewBox="0 0 381.7 1427" style="enable-background:new 0 0 381.7 1427;" xml:space="preserve">
<style type="text/css">
	.st0{fill:#FFFFFF;}
	.st1{fill:#446CB4;}
	.st2{fill:#FFD528;}
	.st3{fill:#65BC4C;}
	.st4{fill:#E284B6;}
	.st5{fill:#DB4646;}
	.st6{fill:#9072B3;}
</style>
<g>
	<rect x="4" class="st0" width="377.7" height="1427"/>
	<polygon class="st1" points="37.5,295.9 137.9,295.6 164.3,195.5 31.6,202.5 	"/>
	<polygon class="st1" points="250.8,116.1 351.2,115.8 377.6,15.7 244.9,22.7 	"/>
	<circle class="st2" cx="101.4" cy="158.5" r="54"/>
	<polygon class="st3" points="243.6,71.7 197.6,136.7 269.6,189.7 260.6,202.7 176.6,139.7 220.6,76.7 149.1,44.2 157.8,29.5 	"/>
	<polygon class="st3" points="293,297 282,313 349.6,342.8 289,395 370.4,441.5 381.7,427.5 316.5,394.2 374,338.5 	"/>
	<polygon class="st3" points="224,618 179,676 265,740 275,728 199,676 248,612 183,578 172,594 	"/>
	<circle class="st2" cx="324.2" cy="1183.6" r="52.5"/>
	<path class="st4" d="M260.5,80.1l-42,54l65,40l35.5-59.2L260.5,80.1z M279.3,160.5L233,132.1l29.9-38.4l41.6,24.8L279.3,160.5z"/>
	<path class="st4" d="M114.1,361l-45,57l66,42l36-60L114.1,361z M131.1,442l-44-28l29-38l40,26L131.1,442z"/>
	<path class="st4" d="M257,628l-40,50l60,42l25.9-41.3v-24.1L257,628z M275.5,704.5l-44-28l29-38l40,26L275.5,704.5z"/>
	<path class="st4" d="M257,628l-40,50l60,42l37.6-59.9L257,628z M273.6,704.7L232,675.6l27.7-34.6l39.9,22.2L273.6,704.7z"/>
	<path class="st4" d="M114,906l-40,50l60,42l37-59L114,906z M132.5,982.5l-44-28l29-38l40,26L132.5,982.5z"/>
	<polygon class="st3" points="233.1,1176.5 183.1,1236.5 269.1,1300.5 279.1,1288.5 203.1,1236.5 252.1,1172.5 193.1,1141.5 
		183.1,1154.5 	"/>
	<path class="st4" d="M266.1,1185.5l-43.6,56.5l62.9,37.6l32.9-61.5L266.1,1185.5z M281.6,1266l-44-28l29-38l40,26L281.6,1266z"/>
	<path class="st4" d="M323.2,770.3l-43.6,56.5l62.9,37.6l32.9-61.5L323.2,770.3z M338.7,850.8l-44-28l29-38l40,26L338.7,850.8z"/>
	<polygon class="st1" points="166,575 270,575 299,465 166,472 	"/>
	<polygon class="st1" points="51.8,755.2 58.2,858 159,858 188,748 	"/>
	<circle class="st2" cx="318.1" cy="239.3" r="54"/>
	<circle class="st2" cx="242" cy="434" r="51"/>
	<circle class="st2" cx="110.6" cy="718.5" r="52.5"/>
	<polygon class="st1" points="147.8,1131 251.8,1131 280.8,1021 147.8,1028 	"/>
	<polygon class="st1" points="90,1404 194,1404 223,1294 90,1301 	"/>
	<circle class="st2" cx="210.9" cy="999.8" r="52.5"/>
	<g>
		<g>
			<polygon class="st5" points="169.7,320.8 158.4,319 166.6,328.3 			"/>
			<polygon class="st5" points="171.8,334.2 177.6,340.9 184.9,323.3 176.8,322 			"/>
			<path class="st5" d="M183.4,345.3c-0.2,0.5-0.5,0.9-0.8,1.2l5.4,6.1l11.1-27.1l-7.1-1.1L183.4,345.3z"/>
			<path class="st5" d="M193.3,358c-0.1,0.2-0.2,0.3-0.2,0.5l5.2,5.9l15-36.5l-7.1-1.1L193.3,358z"/>
			<polygon class="st5" points="203.4,370.2 208.2,375.7 227,330 220.4,328.9 			"/>
			<polygon class="st5" points="213.4,381.5 218.6,387.4 241.2,332.3 234.1,331.1 			"/>
			<polygon class="st5" points="223.7,393.2 228.5,398.7 254.9,334.5 248.3,333.4 			"/>
			<polygon class="st5" points="233.7,404.5 239.2,410.8 269.6,336.8 262,335.6 			"/>
			<polygon class="st5" points="244.3,416.7 249.9,423 284.3,339.2 276.7,337.9 			"/>
			<path class="st5" d="M255.2,428.3c-0.1,0.2-0.2,0.3-0.3,0.5l5,5.7l37.5-93.2l-6.1-1L255.2,428.3z"/>
		</g>
	</g>
	<g>
		<g>
			<polygon class="st5" points="137,879 126.2,876.5 133.5,886.1 			"/>
			<polygon class="st5" points="138.1,892.1 143.4,899 151.6,882.4 143.8,880.6 			"/>
			<path class="st5" d="M148.6,903.6c-0.2,0.5-0.5,0.9-0.9,1.2l4.8,6.3l12.6-25.5l-6.8-1.6L148.6,903.6z"/>
			<path class="st5" d="M157.5,916.6c-0.1,0.2-0.2,0.3-0.3,0.4l4.6,6.1l17-34.4l-6.8-1.6L157.5,916.6z"/>
			<polygon class="st5" points="166.5,929.1 170.8,934.7 192,891.7 185.7,890.2 			"/>
			<polygon class="st5" points="175.4,940.7 180,946.8 205.6,894.8 198.8,893.3 			"/>
			<polygon class="st5" points="184.6,952.8 188.9,958.4 218.7,897.9 212.4,896.4 			"/>
			<polygon class="st5" points="193.5,964.4 198.5,970.9 232.9,901.1 225.6,899.4 			"/>
			<polygon class="st5" points="203.1,976.9 208,983.3 247,904.4 239.7,902.7 			"/>
			<path class="st5" d="M212.9,988.9c-0.1,0.2-0.2,0.3-0.3,0.4l4.5,5.9l42.5-87.9l-5.8-1.3L212.9,988.9z"/>
		</g>
	</g>
	<circle class="st2" cx="82.8" cy="1295.5" r="52.5"/>
	<polygon class="st3" points="121.1,481.3 130.1,468.3 58.6,415.8 104.1,350.3 26.1,309.3 18.9,323.5 81.1,355.3 35.4,421.4 	"/>
	<g>
		<g>
			<polygon class="st5" points="51,1165.7 43.2,1177.5 51,1184.1 58.8,1167.3 			"/>
			<path class="st5" d="M56.5,1188.6c-0.2,0.5-0.5,0.9-0.9,1.2l5,6.2l11.9-25.9l-6.8-1.4L56.5,1188.6z"/>
			<path class="st5" d="M65.6,1201.4c-0.1,0.2-0.2,0.3-0.3,0.4l4.8,5.9l16.1-34.9l-6.8-1.4L65.6,1201.4z"/>
			<polygon class="st5" points="74.9,1213.6 79.3,1219.1 99.4,1175.5 93,1174.3 			"/>
			<polygon class="st5" points="84.1,1225 88.9,1230.9 113.1,1178.3 106.2,1176.9 			"/>
			<polygon class="st5" points="93.6,1236.8 98.1,1242.3 126.3,1181 119.9,1179.7 			"/>
			<polygon class="st5" points="102.8,1248.2 108,1254.5 140.5,1183.9 133.1,1182.4 			"/>
			<polygon class="st5" points="112.7,1260.4 117.8,1266.7 154.7,1186.8 147.3,1185.3 			"/>
			<path class="st5" d="M122.8,1272.1c-0.1,0.2-0.2,0.3-0.3,0.4l4.6,5.7l40.2-89l-5.9-1.2L122.8,1272.1z"/>
		</g>
	</g>
	<g>
		<g>
			<polygon class="st6" points="112.9,505.4 106.6,509.1 134.9,530.3 137.4,523.7 			"/>
			<polygon class="st6" points="128.1,496.5 119.5,501.5 139.9,516.8 143.2,507.7 			"/>
			<polygon class="st6" points="145.7,500.9 148.6,493 142.5,488.1 134.7,492.6 			"/>
			<path class="st6" d="M100.3,513.2c-0.1-0.1-0.2-0.2-0.3-0.3l-6.9,4.1l36.7,27.3l2.6-7.2L100.3,513.2z"/>
			<polygon class="st6" points="86.5,520.8 79.4,524.9 124.5,558.6 127.3,551.2 			"/>
			<polygon class="st6" points="72.9,528.8 65.9,532.8 119.4,572.7 122,565.5 			"/>
			<path class="st6" d="M60,537.1c-0.2-0.2-0.4-0.3-0.6-0.5l-6.7,4.5l61.4,45.9l2.7-7.4L60,537.1z"/>
			<polygon class="st6" points="46.5,545.2 39.5,550.1 108.7,601.9 111.6,593.9 			"/>
			<polygon class="st6" points="33.1,554.2 27.2,557.9 104.1,614.5 106.2,608.8 			"/>
			<polygon class="st6" points="146.8,484.3 152.8,488.3 155.8,480.3 			"/>
		</g>
	</g>
	<g>
		<g>
			<polygon class="st6" points="269.7,761 263.9,764.7 290.3,785.9 292.5,779.3 			"/>
			<polygon class="st6" points="284,752.1 275.9,757.2 294.9,772.4 298,763.4 			"/>
			<polygon class="st6" points="300.3,756.5 303,748.7 297.3,743.8 290.1,748.3 			"/>
			<path class="st6" d="M258.1,768.8c-0.1-0.1-0.2-0.2-0.3-0.3l-6.5,4l34.2,27.3l2.5-7.2L258.1,768.8z"/>
			<polygon class="st6" points="245.2,776.4 238.6,780.5 280.6,814.2 283.1,806.8 			"/>
			<polygon class="st6" points="232.5,784.4 226,788.4 275.8,828.2 278.3,821 			"/>
			<path class="st6" d="M220.5,792.7c-0.2-0.2-0.4-0.3-0.5-0.5l-6.7,4.2l57.6,46.1l2.5-7.4L220.5,792.7z"/>
			<polygon class="st6" points="207.2,800.2 200,804.7 265.8,857.4 268.6,849.3 			"/>
			<polygon class="st6" points="193.9,808.5 188.2,812.1 261.5,870 263.5,864.2 			"/>
			<polygon class="st6" points="308,737.2 301.9,740.5 305.2,742.8 			"/>
		</g>
	</g>
	<g>
		<g>
			<polygon class="st6" points="110.4,1037.4 104.5,1040.9 129.9,1062.3 132.3,1055.9 			"/>
			<polygon class="st6" points="124.6,1029 116.5,1033.8 134.8,1049.2 138.1,1040.4 			"/>
			<polygon class="st6" points="140.6,1033.7 143.5,1026 138.1,1021 130.8,1025.4 			"/>
			<path class="st6" d="M98.7,1044.7c-0.1-0.1-0.2-0.2-0.3-0.3l-6.5,3.8l32.8,27.8l2.6-7L98.7,1044.7z"/>
			<polygon class="st6" points="85.8,1051.9 79.2,1055.8 119.6,1090 122.3,1082.7 			"/>
			<polygon class="st6" points="73,1059.5 66.6,1063.3 114.4,1103.7 117.1,1096.7 			"/>
			<path class="st6" d="M61,1067.4c-0.2-0.2-0.4-0.3-0.5-0.5l-6.7,4l55.4,46.8l2.7-7.2L61,1067.4z"/>
			<polygon class="st6" points="48.1,1074.8 40.7,1078.9 103.8,1132.2 106.7,1124.3 			"/>
			<polygon class="st6" points="34.6,1082.5 28.9,1085.9 99.2,1144.5 101.3,1138.8 			"/>
			<polygon class="st6" points="142.1,1017.4 147.5,1021.5 150.5,1013.7 			"/>
		</g>
	</g>
	<g>
		<g>
			<g>
				<polygon class="st5" points="45.5,44.2 41.1,54.7 46,61.7 53.1,45.3 				"/>
				<polygon class="st5" points="51.2,67.3 54.9,71.4 65.3,47.2 60.2,46.4 				"/>
				<polygon class="st5" points="60.1,76.9 65.4,82.8 79.8,49.3 72.5,48.2 				"/>
				<polygon class="st5" points="70.6,88.4 76.2,94.4 94.7,51.6 87,50.4 				"/>
				<polygon class="st5" points="81.4,99.9 86.3,105.4 108.6,53.6 101.8,52.6 				"/>
				<polygon class="st5" points="91.5,110.9 96.2,116.1 122.3,55.7 115.8,54.7 				"/>
				<polygon class="st5" points="101.4,121.6 106.5,127.1 136.4,57.8 129.4,56.8 				"/>
				<polygon class="st5" points="111.7,132.8 117,138.6 150.9,60 143.6,58.9 				"/>
				<polygon class="st5" points="122.2,144.1 126.1,148.4 165.5,62.2 158.1,61.1 				"/>
			</g>
		</g>
		<polygon class="st5" points="40,43.1 36.9,50.4 30.3,41.4 		"/>
	</g>
	<g>
		<g>
			<g>
				<polygon class="st6" points="251.5,214.5 245.2,218.2 273.5,239.4 276,232.8 				"/>
				<polygon class="st6" points="266.7,205.6 258.1,210.6 278.5,225.9 281.8,216.8 				"/>
				<polygon class="st6" points="287,202.1 281.1,197.2 273.3,201.7 284.3,210 284.5,209.3 				"/>
				<path class="st6" d="M238.9,222.3c-0.1-0.1-0.2-0.2-0.3-0.3l-6.9,4.1l36.7,27.3l2.6-7.2L238.9,222.3z"/>
				<polygon class="st6" points="225.1,229.9 218,234 263.1,267.7 265.9,260.3 				"/>
				<polygon class="st6" points="211.5,237.9 204.5,241.9 258,281.8 260.6,274.6 				"/>
				<path class="st6" d="M198.6,246.2c-0.2-0.2-0.4-0.3-0.6-0.5l-7.2,4.2l61.9,46.2l2.7-7.4L198.6,246.2z"/>
				<polygon class="st6" points="184.3,253.7 176.6,258.2 247.3,311 250.2,303 				"/>
				<polygon class="st6" points="170,262 163.9,265.6 242.7,323.6 244.8,317.9 				"/>
			</g>
		</g>
		<polygon class="st6" points="284.4,194.7 288.4,197.2 290.1,191.1 		"/>
	</g>
	<g>
		<g>
			<g>
				<polygon class="st5" points="27.3,637.8 32.7,643.9 39.3,627.8 31.9,626.6 				"/>
				<path class="st5" d="M37.9,647.9c-0.2,0.5-0.5,0.9-0.8,1.1l4.9,5.6l10.2-24.8l-6.5-1L37.9,647.9z"/>
				<path class="st5" d="M47,659.5c-0.1,0.2-0.1,0.3-0.2,0.4l4.8,5.4l13.7-33.4l-6.5-1L47,659.5z"/>
				<polygon class="st5" points="56.3,670.7 60.6,675.7 77.8,633.9 71.8,633 				"/>
				<polygon class="st5" points="65.4,681.1 70.1,686.4 90.8,636 84.3,635 				"/>
				<polygon class="st5" points="74.8,691.8 79.2,696.8 103.3,638 97.3,637 				"/>
				<polygon class="st5" points="83.9,702.1 89,707.9 116.8,640.2 109.8,639 				"/>
				<polygon class="st5" points="93.7,713.2 98.7,719 130.3,642.3 123.3,641.2 				"/>
				<path class="st5" d="M103.7,723.9c-0.1,0.2-0.1,0.3-0.2,0.4l4.6,5.2l34.3-85.3l-5.6-0.9L103.7,723.9z"/>
			</g>
		</g>
		<polygon class="st5" points="26.2,626.2 22.9,632.4 15.5,625.3 		"/>
	</g>
	<g>
		<g>
			<g>
				<polygon class="st5" points="265.1,1044.7 270.5,1050.8 277.1,1034.7 269.7,1033.5 				"/>
				<path class="st5" d="M275.7,1054.8c-0.2,0.5-0.5,0.9-0.8,1.1l4.9,5.6l10.2-24.8l-6.5-1L275.7,1054.8z"/>
				<path class="st5" d="M284.8,1066.4c-0.1,0.2-0.1,0.3-0.2,0.4l4.8,5.4l13.7-33.4l-6.5-1L284.8,1066.4z"/>
				<polygon class="st5" points="294.1,1077.6 298.4,1082.6 315.6,1040.8 309.6,1039.9 				"/>
				<polygon class="st5" points="303.2,1088 307.9,1093.3 328.6,1042.9 322.1,1041.9 				"/>
				<polygon class="st5" points="312.6,1098.7 317,1103.7 341.1,1044.9 335.1,1043.9 				"/>
				<polygon class="st5" points="321.7,1109 326.8,1114.8 354.6,1047.1 347.6,1045.9 				"/>
				<polygon class="st5" points="331.5,1120.1 336.5,1125.9 368.1,1049.2 361.1,1048.1 				"/>
				<path class="st5" d="M341.5,1130.8c-0.1,0.2-0.1,0.3-0.2,0.4l4.6,5.2l34.3-85.3l-5.6-0.9L341.5,1130.8z"/>
			</g>
		</g>
		<polygon class="st5" points="264,1033.1 260.7,1039.3 253.3,1032.2 		"/>
	</g>
	<polygon class="st3" points="296.2,850.2 287.2,863.2 329.4,889.6 288.3,948.2 353.3,999 364.4,986.1 309.8,944.8 351.5,886.5 	"/>
	<polygon class="st3" points="131.8,1007 119.4,1021.9 33.9,957 78.4,899.9 16.2,871.9 26.6,854.3 102.4,893.9 57.4,953.9 	"/>
	<polygon class="st5" points="44.3,1164.4 38.6,1172.8 29.5,1163.1 	"/>
	<g>
		<g>
			<polygon class="st6" points="319.6,1300 313.8,1303.7 340.2,1324.9 342.4,1318.3 			"/>
			<polygon class="st6" points="333.9,1291.1 325.8,1296.2 344.8,1311.4 347.9,1302.4 			"/>
			<polygon class="st6" points="350.2,1295.5 352.9,1287.7 347.2,1282.8 340,1287.3 			"/>
			<path class="st6" d="M308,1307.8c-0.1-0.1-0.2-0.2-0.3-0.3l-6.5,4l34.2,27.3l2.5-7.2L308,1307.8z"/>
			<polygon class="st6" points="295.1,1315.4 288.5,1319.5 330.5,1353.2 333,1345.8 			"/>
			<polygon class="st6" points="282.4,1323.4 275.9,1327.4 325.7,1367.2 328.2,1360 			"/>
			<path class="st6" d="M270.4,1331.7c-0.2-0.2-0.4-0.3-0.5-0.5l-6.7,4.2l57.6,46.1l2.5-7.4L270.4,1331.7z"/>
			<polygon class="st6" points="257.1,1339.2 249.9,1343.7 315.7,1396.4 318.5,1388.3 			"/>
			<polygon class="st6" points="243.8,1347.5 238.1,1351.1 311.4,1409 313.4,1403.2 			"/>
			<polygon class="st6" points="357.9,1276.2 351.8,1279.4 355.1,1281.7 			"/>
		</g>
	</g>
	<g>
		<g>
			<polygon class="st6" points="327.7,547.4 321.4,551.1 349.7,572.3 352.2,565.7 			"/>
			<polygon class="st6" points="342.9,538.5 334.3,543.5 354.7,558.8 358,549.7 			"/>
			<polygon class="st6" points="360.5,542.9 363.4,535 357.3,530.1 349.5,534.6 			"/>
			<path class="st6" d="M315.1,555.2c-0.1-0.1-0.2-0.2-0.3-0.3l-6.9,4.1l36.7,27.3l2.6-7.2L315.1,555.2z"/>
			<polygon class="st6" points="301.3,562.8 294.2,566.9 339.3,600.6 342.1,593.2 			"/>
			<polygon class="st6" points="287.7,570.8 280.7,574.8 334.2,614.7 336.8,607.5 			"/>
			<path class="st6" d="M274.8,579.1c-0.2-0.2-0.4-0.3-0.6-0.5l-6.7,4.5l61.4,45.9l2.7-7.4L274.8,579.1z"/>
			<polygon class="st6" points="261.3,587.2 254.3,592.1 323.5,643.9 326.4,635.9 			"/>
			<polygon class="st6" points="247.9,596.2 242,599.9 318.9,656.5 321,650.8 			"/>
			<polygon class="st6" points="361.6,526.3 367.6,530.3 370.6,522.3 			"/>
		</g>
	</g>
	<path class="st4" d="M317,439l-40,50l60,42l37.6-59.9L317,439z M333.6,515.7L292,486.6l27.7-34.6l39.9,22.2L333.6,515.7z"/>
</g>
</svg>
