<?xml version="1.0" encoding="utf-8"?>
<!-- Generator: Adobe Illustrator 21.1.0, SVG Export Plug-In . SVG Version: 6.00 Build 0)  -->
<svg version="1.1" id="Layer_1" xmlns="http://www.w3.org/2000/svg" xmlns:xlink="http://www.w3.org/1999/xlink" x="0px" y="0px"
	 viewBox="0 0 235 1289" style="enable-background:new 0 0 235 1289;" xml:space="preserve">
<style type="text/css">
	.st0{fill:#FFFFFF;}
	.st1{fill:#446CB4;}
	.st2{fill:#FFD528;}
	.st3{fill:#DB4646;}
	.st4{fill:#65BC4C;}
	.st5{fill:#E284B6;}
	.st6{fill:#9072B3;}
</style>
<rect class="st0" width="236" height="1289"/>
<polygon class="st1" points="0.2,150.7 0.2,254 91,254 118,145 "/>
<circle class="st2" cx="67" cy="115" r="54"/>
<g>
	<g>
		<polygon class="st3" points="0.2,2.9 0.2,20 0.7,20.4 7.8,4 		"/>
		<polygon class="st3" points="5.9,26 9.6,30.1 20,5.9 14.9,5.1 		"/>
		<polygon class="st3" points="14.8,35.7 20.1,41.5 34.5,8 27.2,6.9 		"/>
		<polygon class="st3" points="25.3,47.1 30.9,53.1 49.4,10.3 41.7,9.1 		"/>
		<polygon class="st3" points="36.1,58.7 41,64.1 63.3,12.3 56.5,11.3 		"/>
		<polygon class="st3" points="46.2,69.7 50.9,74.8 77,14.4 70.5,13.4 		"/>
		<polygon class="st3" points="56.1,80.4 61.2,85.9 91.1,16.5 84.1,15.5 		"/>
		<polygon class="st3" points="66.4,91.5 71.7,97.3 105.6,18.7 98.3,17.6 		"/>
		<polygon class="st3" points="76.9,102.9 80.8,107.2 120.2,20.9 112.8,19.8 		"/>
	</g>
</g>
<polygon class="st4" points="134.5,71.5 180.5,6.5 168.3,0.1 132.2,0.1 157.5,11.5 113.5,74.5 197.5,137.5 206.5,124.5 "/>
<polygon class="st4" points="235.9,256.6 229,253 218,269 235.9,277.1 "/>
<polygon class="st4" points="235.9,341.2 225,351 235.9,359.2 "/>
<polygon class="st4" points="157,574 112,632 198,696 208,684 132,632 181,568 116,534 105,550 "/>
<polygon class="st4" points="-0.1,895.1 36,848 -0.1,829.1 -0.1,848.4 12,854 -0.1,869.6 "/>
<polygon class="st4" points="-0.1,920.8 -0.1,936.5 53,976 63,964 "/>
<polygon class="st4" points="235.9,815.8 232,813 223,826 235.9,833.6 "/>
<polygon class="st4" points="235.9,894.7 224.1,911 235.9,920.4 "/>
<polygon class="st5" points="236.1,59.3 236.1,47.6 190.5,20.5 148.5,74.5 213.5,114.5 236.1,77.4 236.1,60 208.5,101.5 162.5,72.5 
	193.5,32.5 "/>
<path class="st5" d="M48.5,296.5l-45,57l66,42l36-60L48.5,296.5z M65.5,377.5l-44-28l29-38l40,26L65.5,377.5z"/>
<path class="st5" d="M190,584l-40,50l60,42l25.9-41.3v-24.1L190,584z M208.5,660.5l-44-28l29-38l40,26L208.5,660.5z"/>
<path class="st5" d="M47,862L7,912l60,42l37-59L47,862z M65.5,938.5l-44-28l29-38l40,26L65.5,938.5z"/>
<polygon class="st4" points="160,1133 110,1193 196,1257 206,1245 130,1193 179,1129 120,1098 110,1111 "/>
<path class="st5" d="M193,1142l-43.6,56.5l62.9,37.6l23.9-44.9V1169L193,1142z M208.5,1222.5l-44-28l29-38l40,26L208.5,1222.5z"/>
<polygon class="st1" points="99,531 203,531 232,421 99,428 "/>
<polygon class="st1" points="-0.1,710.4 -0.1,814 92,814 121,704 "/>
<circle class="st2" cx="175" cy="390" r="51"/>
<circle class="st2" cx="63.5" cy="674.5" r="52.5"/>
<polygon class="st1" points="102,1091 206,1091 235,981 102,988 "/>
<circle class="st2" cx="177.5" cy="951.5" r="52.5"/>
<g>
	<g>
		<polygon class="st3" points="102.7,276.8 91.4,275 99.6,284.3 		"/>
		<polygon class="st3" points="104.8,290.2 110.6,296.9 117.9,279.3 109.8,278 		"/>
		<path class="st3" d="M116.4,301.3c-0.2,0.5-0.5,0.9-0.8,1.2l5.4,6.1l11.1-27.1l-7.1-1.1L116.4,301.3z"/>
		<path class="st3" d="M126.3,314c-0.1,0.2-0.2,0.3-0.2,0.5l5.2,5.9l15-36.5l-7.1-1.1L126.3,314z"/>
		<polygon class="st3" points="136.4,326.2 141.2,331.7 160,286 153.4,284.9 		"/>
		<polygon class="st3" points="146.4,337.5 151.6,343.4 174.2,288.3 167.1,287.1 		"/>
		<polygon class="st3" points="156.7,349.2 161.5,354.7 187.9,290.5 181.3,289.4 		"/>
		<polygon class="st3" points="166.7,360.5 172.2,366.8 202.6,292.8 195,291.6 		"/>
		<polygon class="st3" points="177.3,372.7 182.9,379 217.3,295.2 209.7,293.9 		"/>
		<path class="st3" d="M188.2,384.3c-0.1,0.2-0.2,0.3-0.3,0.5l5,5.7l37.5-93.2l-6.1-1L188.2,384.3z"/>
	</g>
</g>
<g>
	<g>
		<polygon class="st3" points="0.7,576.4 6.1,582.5 12.7,566.4 5.3,565.2 		"/>
		<path class="st3" d="M11.3,586.5c-0.2,0.5-0.5,0.9-0.8,1.1l4.9,5.6l10.2-24.8l-6.5-1L11.3,586.5z"/>
		<path class="st3" d="M20.4,598.1c-0.1,0.2-0.1,0.3-0.2,0.4l4.8,5.4l13.7-33.4l-6.5-1L20.4,598.1z"/>
		<polygon class="st3" points="29.7,609.3 34,614.3 51.2,572.5 45.2,571.6 		"/>
		<polygon class="st3" points="38.8,619.7 43.5,625 64.2,574.6 57.7,573.6 		"/>
		<polygon class="st3" points="48.2,630.4 52.6,635.4 76.7,576.6 70.7,575.6 		"/>
		<polygon class="st3" points="57.3,640.7 62.4,646.5 90.2,578.8 83.2,577.6 		"/>
		<polygon class="st3" points="67.1,651.8 72.1,657.6 103.7,580.9 96.7,579.8 		"/>
		<path class="st3" d="M77.1,662.5c-0.1,0.2-0.1,0.3-0.2,0.4l4.6,5.2l34.3-85.3l-5.6-0.9L77.1,662.5z"/>
	</g>
</g>
<g>
	<g>
		<polygon class="st3" points="105.5,835 94.7,832.5 102,842.1 		"/>
		<polygon class="st3" points="106.6,848.1 111.9,855 120.1,838.4 112.3,836.6 		"/>
		<path class="st3" d="M117.2,859.6c-0.2,0.5-0.5,0.9-0.9,1.2l4.8,6.3l12.6-25.5l-6.8-1.6L117.2,859.6z"/>
		<path class="st3" d="M126,872.6c-0.1,0.2-0.2,0.3-0.3,0.4l4.6,6.1l17-34.4l-6.8-1.6L126,872.6z"/>
		<polygon class="st3" points="135,885.1 139.3,890.7 160.5,847.7 154.2,846.2 		"/>
		<polygon class="st3" points="143.9,896.7 148.5,902.8 174.1,850.8 167.3,849.3 		"/>
		<polygon class="st3" points="153.1,908.8 157.4,914.4 187.2,853.9 180.9,852.4 		"/>
		<polygon class="st3" points="162,920.4 167,926.9 201.4,857.1 194.1,855.4 		"/>
		<polygon class="st3" points="171.6,932.9 176.5,939.3 215.5,860.4 208.2,858.7 		"/>
		<path class="st3" d="M181.4,944.9c-0.1,0.2-0.2,0.3-0.3,0.4l4.5,5.9l42.5-87.9l-5.8-1.3L181.4,944.9z"/>
	</g>
</g>
<path class="st1" d="M0.1,1271.4c0,0.1,0,0.3,0,0.4v17.1h115.5l6.3-23.9L0.1,1271.4z"/>
<circle class="st2" cx="64.5" cy="1235.5" r="52.5"/>
<g>
	<g>
		<polygon class="st3" points="0.3,1120.5 -0.1,1121.2 -0.1,1138.4 0.3,1138.9 8.1,1122.1 		"/>
		<path class="st3" d="M5.8,1143.4c-0.2,0.5-0.5,0.9-0.9,1.2l5,6.2l11.9-25.9l-6.8-1.4L5.8,1143.4z"/>
		<path class="st3" d="M14.9,1156.2c-0.1,0.2-0.2,0.3-0.3,0.4l4.8,5.9l16.1-34.9l-6.8-1.4L14.9,1156.2z"/>
		<polygon class="st3" points="24.2,1168.4 28.6,1173.9 48.7,1130.3 42.3,1129.1 		"/>
		<polygon class="st3" points="33.4,1179.8 38.2,1185.7 62.4,1133.1 55.5,1131.7 		"/>
		<polygon class="st3" points="42.9,1191.6 47.4,1197.1 75.6,1135.8 69.2,1134.5 		"/>
		<polygon class="st3" points="52.1,1203 57.3,1209.3 89.8,1138.7 82.4,1137.2 		"/>
		<polygon class="st3" points="62,1215.2 67.1,1221.5 104,1141.6 96.6,1140.1 		"/>
		<path class="st3" d="M72.1,1226.9c-0.1,0.2-0.2,0.3-0.3,0.4l4.6,5.7l40.2-89l-5.9-1.2L72.1,1226.9z"/>
	</g>
</g>
<polygon class="st4" points="-0.1,336.6 37.5,283.5 -0.1,263.9 -0.1,281.9 14.5,288.5 -0.1,309.4 "/>
<polygon class="st4" points="-0.1,354.7 -0.1,373.6 54.5,414.5 63.5,401.5 "/>
<g>
	<g>
		<polygon class="st6" points="203.1,152.1 196.8,155.8 225.1,177 227.6,170.4 		"/>
		<polygon class="st6" points="218.3,143.2 209.7,148.2 230.1,163.5 233.4,154.4 		"/>
		<polygon class="st6" points="236.1,137.6 232.7,134.8 224.9,139.3 235.9,147.6 236.1,146.9 		"/>
		<path class="st6" d="M190.5,159.9c-0.1-0.1-0.2-0.2-0.3-0.3l-6.9,4.1L220,191l2.6-7.2L190.5,159.9z"/>
		<polygon class="st6" points="176.7,167.5 169.6,171.6 214.7,205.3 217.5,197.9 		"/>
		<polygon class="st6" points="163.1,175.5 156.1,179.5 209.6,219.4 212.2,212.2 		"/>
		<path class="st6" d="M150.2,183.8c-0.2-0.2-0.4-0.3-0.6-0.5l-7.2,4.2l61.9,46.2l2.7-7.4L150.2,183.8z"/>
		<polygon class="st6" points="135.9,191.3 128.2,195.8 198.9,248.6 201.8,240.6 		"/>
		<polygon class="st6" points="121.6,199.6 115.5,203.2 194.3,261.2 196.4,255.5 		"/>
	</g>
</g>
<g>
	<g>
		<polygon class="st6" points="59.1,433.1 52.8,436.8 81.1,458 83.6,451.4 		"/>
		<polygon class="st6" points="74.3,424.2 65.7,429.2 86.1,444.5 89.4,435.4 		"/>
		<polygon class="st6" points="91.9,428.6 94.8,420.7 88.7,415.8 80.9,420.3 		"/>
		<path class="st6" d="M46.5,440.9c-0.1-0.1-0.2-0.2-0.3-0.3l-6.9,4.1L76,472l2.6-7.2L46.5,440.9z"/>
		<polygon class="st6" points="32.7,448.5 25.6,452.6 70.7,486.3 73.5,478.9 		"/>
		<polygon class="st6" points="19.1,456.5 12.1,460.5 65.6,500.4 68.2,493.2 		"/>
		<path class="st6" d="M6.2,464.8c-0.2-0.2-0.4-0.3-0.6-0.5l-5.5,3.2c0,0,0,0,0,0v2.2l60.2,45l2.7-7.4L6.2,464.8z"/>
		<polygon class="st6" points="0.2,478.5 0.2,488.7 54.9,529.6 57.8,521.6 		"/>
		<polygon class="st6" points="0.2,497.5 0.2,505.3 50.3,542.2 52.4,536.5 		"/>
		<polygon class="st6" points="93,412 99,416 102,408 		"/>
	</g>
</g>
<g>
	<g>
		<polygon class="st6" points="201,717 195.2,720.7 221.6,741.9 223.8,735.3 		"/>
		<polygon class="st6" points="215.3,708.1 207.2,713.2 226.2,728.4 229.3,719.4 		"/>
		<polygon class="st6" points="231.6,712.5 234.3,704.7 228.6,699.8 221.4,704.3 		"/>
		<path class="st6" d="M189.4,724.8c-0.1-0.1-0.2-0.2-0.3-0.3l-6.5,4l34.2,27.3l2.5-7.2L189.4,724.8z"/>
		<polygon class="st6" points="176.5,732.4 169.9,736.5 211.9,770.2 214.4,762.8 		"/>
		<polygon class="st6" points="163.8,740.4 157.3,744.4 207.1,784.2 209.6,777 		"/>
		<path class="st6" d="M151.8,748.7c-0.2-0.2-0.4-0.3-0.5-0.5l-6.7,4.2l57.6,46.1l2.5-7.4L151.8,748.7z"/>
		<polygon class="st6" points="138.5,756.2 131.3,760.7 197.1,813.4 199.9,805.3 		"/>
		<polygon class="st6" points="125.2,764.5 119.5,768.1 192.8,826 194.8,820.2 		"/>
		<polygon class="st6" points="235.9,694.4 232.6,696 235.9,698.3 		"/>
	</g>
</g>
<g>
	<g>
		<polygon class="st6" points="59.7,992.2 53.8,995.7 79.2,1017.1 81.6,1010.7 		"/>
		<polygon class="st6" points="73.9,983.8 65.8,988.6 84.1,1004 87.4,995.2 		"/>
		<polygon class="st6" points="89.9,988.5 92.8,980.8 87.4,975.8 80.1,980.2 		"/>
		<path class="st6" d="M48,999.5c-0.1-0.1-0.2-0.2-0.3-0.3l-6.5,3.8l32.8,27.8l2.6-7L48,999.5z"/>
		<polygon class="st6" points="35.1,1006.7 28.5,1010.6 68.9,1044.8 71.6,1037.5 		"/>
		<polygon class="st6" points="22.3,1014.3 15.9,1018.1 63.7,1058.5 66.4,1051.5 		"/>
		<path class="st6" d="M10.3,1022.2c-0.2-0.2-0.4-0.3-0.5-0.5l-6.7,4l55.4,46.8l2.7-7.2L10.3,1022.2z"/>
		<polygon class="st6" points="-0.1,1031.7 -0.1,1042 53.1,1087 56,1079.1 		"/>
		<polygon class="st6" points="-0.1,1050.8 -0.1,1058.8 48.5,1099.3 50.6,1093.6 		"/>
		<polygon class="st6" points="91.4,972.2 96.8,976.3 99.8,968.5 		"/>
	</g>
</g>
<g>
	<g>
		<polygon class="st6" points="235.9,1279.2 221.7,1267.2 215.8,1270.7 235.9,1287.7 		"/>
		<polygon class="st6" points="235.9,1258.8 227.8,1263.6 235.9,1270.4 		"/>
		<path class="st6" d="M227.2,1289.1l-17.2-14.6c-0.1-0.1-0.2-0.2-0.3-0.3l-6.5,3.8l13,11H227.2z"/>
		<polygon class="st6" points="205.8,1289.1 197.1,1281.7 190.5,1285.6 194.6,1289.1 		"/>
	</g>
</g>
</svg>
