<?xml version="1.0" encoding="utf-8"?>
<!-- Generator: Adobe Illustrator 21.1.0, SVG Export Plug-In . SVG Version: 6.00 Build 0)  -->
<svg version="1.1" xmlns="http://www.w3.org/2000/svg" xmlns:xlink="http://www.w3.org/1999/xlink" x="0px" y="0px"
	 viewBox="0 0 100 100" style="enable-background:new 0 0 100 100;" xml:space="preserve">
<style type="text/css">
	.st0{opacity:0.6;}
	.st1{clip-path:url(#SVGID_2_);}
	.st2{fill:#F79C2F;stroke:#CC6633;stroke-miterlimit:10;}
	.st3{fill:#DB3535;}
	.st4{fill:#391910;}
	.st5{fill:#FFFFFF;}
	.st6{fill:none;stroke:#391910;stroke-miterlimit:10;}
	.st7{fill:none;stroke:#000000;stroke-miterlimit:10;}
	.st8{fill:#AAAAAA;stroke:#888888;stroke-miterlimit:10;}
	.st9{fill:#3156F4;stroke:#FF002B;stroke-miterlimit:10;}
	.st10{fill:#F79C2F;stroke:#CC6633;stroke-width:2;stroke-miterlimit:10;}
	.st11{fill:#CC6633;}
	.st12{fill:none;stroke:#CC6633;stroke-miterlimit:10;}
</style>
<g id="Layer_1">
</g>
<g id="Pattern">
	<path d="M78.6,47.4c2-2,4.7-9.5,5.3-11.3c3.1-9.3-0.4-18-0.9-19.2c-0.6-1.4-1.3-3-2.7-4.8c-2.2-2.8-5.4-4.9-12.1-6.9
		C56.9,1.9,47.9,2.8,37.9,3.9c-2.1,0.2-4.9,0.6-8,2.1c0,0-4.8,2.4-8.2,7.4C16,21.8,18.7,36.1,20.4,40c1.1,2.7,1.7,4,2.6,5
		c0.3,0.3,0.9,0.9,1.3,1.9c0.4,1.1,0.4,2.2,0.1,2.7c-6.9,11.3-6.2,18-6,20.8c1.1,14.1,11.6,22.9,12.7,23.7c0.6,0.4,1.2,0.8,1.2,0.8
		c2.2,1.3,4.2,1.6,5.7,1.9c7.2,1,9.8,1.3,15.9,1.2c3,0,10.6-0.3,13.9-2.4c1.5-1,2.7-1.6,3.6-2.5c2.6-2.5,3.9-3.8,5-5.2
		c5.1-6.6,6.2-14.2,6.4-15.4c0.8-5.9-0.2-10.5-0.5-11.7c-1.1-4.3-2.9-7.6-4.2-9.5c-0.3-0.4-0.6-1.1-0.5-1.9
		C77.6,48.3,78.4,47.6,78.6,47.4z M70.7,35.4c0,0-1.1,2.4-2.8,3.7c-1.7,1.3-4,0-4,0S57,36,50.5,36s-12.3,2.8-12.3,2.8
		s-1.6,1-3.8-0.5c-2.3-1.5-3.4-9.1-3.4-9.1c-0.3-7.5,1.5-8.9,1.5-8.9s1.2-1.9,4.9-2.8c3.7-0.9,10.5-1.1,10.5-1.1h7.2
		c13.8,1.2,14,3,14,3s2.3,1.5,3,5.6S70.7,35.4,70.7,35.4z"/>
</g>
</svg>
