<?xml version="1.0" encoding="utf-8"?>
<!-- Generator: Adobe Illustrator 21.1.0, SVG Export Plug-In . SVG Version: 6.00 Build 0)  -->
<svg version="1.1" xmlns="http://www.w3.org/2000/svg" xmlns:xlink="http://www.w3.org/1999/xlink" x="0px" y="0px"
	 viewBox="0 0 100 100" style="enable-background:new 0 0 100 100;" xml:space="preserve">
<style type="text/css">
	.st0{opacity:0.6;}
	.st1{clip-path:url(#SVGID_2_);}
	.st2{fill:#F79C2F;stroke:#CC6633;stroke-miterlimit:10;}
	.st3{fill:#DB3535;}
	.st4{fill:#391910;}
	.st5{fill:#FFFFFF;}
	.st6{fill:none;stroke:#391910;stroke-miterlimit:10;}
	.st7{fill:none;stroke:#000000;stroke-miterlimit:10;}
	.st8{fill:#AAAAAA;stroke:#888888;stroke-miterlimit:10;}
	.st9{fill:#3156F4;stroke:#FF002B;stroke-miterlimit:10;}
	.st10{fill:#F79C2F;stroke:#CC6633;stroke-width:2;stroke-miterlimit:10;}
	.st11{fill:#CC6633;}
	.st12{fill:none;stroke:#CC6633;stroke-miterlimit:10;}
</style>
<g id="Layer_1">
</g>
<g id="Pattern">
	<g>
		<ellipse transform="matrix(0.9718 -0.2357 0.2357 0.9718 -4.0318 8.6326)" cx="34.1" cy="21.2" rx="12.6" ry="17.7"/>
		<ellipse transform="matrix(0.2357 -0.9718 0.9718 0.2357 28.7775 78.956)" cx="64.6" cy="21.2" rx="17.7" ry="12.6"/>
		<ellipse transform="matrix(0.9366 -0.3505 0.3505 0.9366 -16.0045 8.2727)" cx="14.9" cy="48.4" rx="11.7" ry="16.1"/>
		<ellipse transform="matrix(0.3505 -0.9366 0.9366 0.3505 10.0161 111.1549)" cx="85.1" cy="48.4" rx="16.1" ry="11.7"/>
		<path d="M79.5,77.2c-9.3-26.3-28.8-26.3-28.8-26.3s-19.5,0-28.8,26.3S38,95,38,95s5.1-4.2,12.7-4.2S63.4,95,63.4,95
			S88.9,103.4,79.5,77.2z"/>
	</g>
</g>
</svg>
