<?xml version="1.0" encoding="utf-8"?>
<!-- Generator: Adobe Illustrator 21.1.0, SVG Export Plug-In . SVG Version: 6.00 Build 0)  -->
<svg version="1.1" xmlns="http://www.w3.org/2000/svg" xmlns:xlink="http://www.w3.org/1999/xlink" x="0px" y="0px"
	 viewBox="0 0 220 195" style="enable-background:new 0 0 220 195;" xml:space="preserve">
<style type="text/css">
	.st0{opacity:0.6;}
	.st1{clip-path:url(#SVGID_2_);}
	.st2{fill:#DB3535;}
	.st3{fill:#F79C2F;stroke:#CC6633;stroke-miterlimit:10;}
	.st4{fill:#391910;}
	.st5{fill:#FFFFFF;}
	.st6{fill:none;stroke:#391910;stroke-miterlimit:10;}
	.st7{fill:none;stroke:#000000;stroke-miterlimit:10;}
	.st8{fill:#AAAAAA;stroke:#888888;stroke-miterlimit:10;}
	.st9{fill:#3156F4;stroke:#FF002B;stroke-miterlimit:10;}
	.st10{fill:#F79C2F;stroke:#CC6633;stroke-width:2;stroke-miterlimit:10;}
	.st11{fill:#446CB4;stroke:#DB4646;stroke-miterlimit:10;}
	.st12{fill:#66C3A2;stroke:#9072B3;stroke-miterlimit:10;}
	.st13{fill:#66C3A2;stroke:#9072B3;stroke-width:2;stroke-miterlimit:10;}
	.st14{stroke:#AAAAAA;stroke-width:2;stroke-miterlimit:10;}
	.st15{fill:none;stroke:#FFFFFF;stroke-miterlimit:10;}
	.st16{fill:#AAAAAA;stroke:#AAAAAA;stroke-miterlimit:10;}
	.st17{fill:#FFFFFF;stroke:#AAAAAA;stroke-miterlimit:10;}
	.st18{fill:#FFFFFF;stroke:#AAAAAA;stroke-width:2;stroke-miterlimit:10;}
	.st19{fill:none;stroke:#AAAAAA;stroke-miterlimit:10;}
	.st20{fill:#DB4646;stroke:#DB4646;stroke-miterlimit:10;}
	.st21{fill:#CC6633;}
	.st22{fill:#FF69B4;}
</style>
<g id="Layer_1">
</g>
<g id="Pattern">
	<g>
		<path class="st3" d="M36.2,135.8c0,0-12.4,13.9-13.9,24.7c-1.5,10.8-3.1,21.7-3.1,21.7s6.2,13.9,17,0s17-20.1,17-20.1
			s32.5-3.1,37.1-6.2c4.6-3.1,29.4,0,29.4,0s37.1,3.1,49.5-18.6c12.4-21.7,13.9-23.2,15.5-32.5C186.3,95.6,177,74,177,74l-55.7-4.6
			c0,0-12.4,4.6-18.6,13.9c0,0,4.6-13.9,0-20.1S81.1,47.7,81.1,47.7S65.6,40,54.8,41.5c-10.8,1.5-15.5-3.1-15.5-3.1
			s-7.7-7.7-9.3-15.5c-1.5-7.7-4.6-20.1-13.9-15.5S8.4,19.9,8.4,19.9s0,9.3,6.2,21.7s15.5,23.2,15.5,23.2s7.7,7.7,7.7,10.8
			C37.8,78.6,30.1,103.4,36.2,135.8z"/>
		<path class="st20" d="M33.9,98c0,0,54.1,7.7,69.6-18.6l-6.2,30.9L115.9,98c0,0,10.8-13,7.7-28.5l6.2,0.6c0,0-6.2,100.5,44.9,20.1
			h7.7c0,0-12.4,12.4-13.9,37.1l1.5,20.1c0,0-21.7,15.5-72.7,6.2c0,0-12.4-26.3-63.4-27.8C33.9,125.8,32.4,125.8,33.9,98z"/>
		<path class="st3" d="M26.2,180.8c0,0-2.4,3.9-4.6,4.4"/>
		<path class="st3" d="M29,183.7c0,0-2.1,4.1-4.1,4.8"/>
		<ellipse class="st21" cx="17.7" cy="22.2" rx="5.4" ry="4.6"/>
		<circle class="st21" cx="11.5" cy="16.8" r="1.5"/>
		<circle class="st21" cx="23.9" cy="15.2" r="1.5"/>
		<circle class="st21" cx="19.2" cy="12.1" r="1.5"/>
		<circle class="st21" cx="14.6" cy="13.7" r="1.5"/>
		<path class="st3" d="M105.1,80.2c0,0-13.1,23.2-14.7,32.5c-1.5,9.3,1.5,12.4,1.5,12.4s6.2,4.6,10.8,0c4.6-4.6,4.6-15.5,4.6-15.5
			s4.3-10.8,9-12.4"/>
		<path class="st3" d="M184.9,102.6c0,0,0.6,27.8-2.5,35.6c-3.1,7.7-4.6,12.4-7.7,13.9c-3.1,1.5-40.5,6.4-40.5,6.4s-7.4-1.8-4.4-8
			c3.1-6.2,4.6-6.2,4.6-6.2s1.5-1.5,7.7-1.5c6.2,0,15.5,0,15.5,0s7.7,0,9.3-3.1c1.5-3.1,3.1-12.4,3.1-12.4"/>
		<g>
			<path class="st3" d="M204.1,43.5c0,0,2.9-12.7,1.6-18.4s-3.9-6.3-3.9-6.3s0.6-2.5-6.3,3.9c-6.9,6.5-7.5,9-7.5,9
				s-7.1-4.3-12.2-5.5c-5.1-1.2-13.3-0.4-13.3-0.4s0.6-2.5-2.7-11.4c-3.3-8.8-3.9-6.3-3.9-6.3s-2.5-0.6-6.3,3.9
				c-3.7,4.5-6.7,17.2-6.7,17.2C138.2,49.8,120,59,120,59c20.8,26.3,41.2,31,41.2,31s20.4,4.7,50.6-9.8
				C211.7,80.2,199.3,63.9,204.1,43.5z"/>
			<line class="st7" x1="188.4" y1="71.8" x2="200.5" y2="72.2"/>
			<line class="st7" x1="187.6" y1="75.2" x2="200.3" y2="80.2"/>
			<g>
				<g>
					
						<ellipse transform="matrix(0.2251 -0.9743 0.9743 0.2251 70.9171 191.6964)" class="st4" cx="156" cy="51.3" rx="6.4" ry="5.3"/>
					
						<ellipse transform="matrix(0.9973 -7.404579e-02 7.404579e-02 0.9973 -3.2331 11.8692)" class="st5" cx="158.5" cy="49.5" rx="1.7" ry="2.7"/>
				</g>
				<g>
					
						<ellipse transform="matrix(0.2251 -0.9743 0.9743 0.2251 85.6254 222.5494)" class="st4" cx="182.7" cy="57.4" rx="6.4" ry="5.3"/>
					
						<ellipse transform="matrix(0.9973 -7.404579e-02 7.404579e-02 0.9973 -3.6172 13.8669)" class="st5" cx="185.2" cy="55.7" rx="1.7" ry="2.7"/>
				</g>
			</g>
			<line class="st7" x1="143.3" y1="61.4" x2="132.3" y2="56.4"/>
			<line class="st7" x1="142.6" y1="64.8" x2="128.9" y2="63.7"/>
			<path class="st22" d="M159.6,73.2c0,0,1.3,15.6,10.5,2.4c0,0-4-4.7-4-7.8C164.6,70.9,159.6,73.2,159.6,73.2z"/>
			<g>
				<path class="st6" d="M153.4,65.4c0,0,3.1,15.5,12.7,2.9c0,0,3.1,15.5,12.7,2.9"/>
				<path class="st4" d="M162.8,64.4c-0.4,0.8,1.1,3,3.4,3.6s4.6-0.8,4.6-1.7C170.7,64.7,163.6,63,162.8,64.4z"/>
			</g>
		</g>
	</g>
</g>
<g id="Layer_3">
</g>
</svg>
