<?xml version="1.0" encoding="utf-8"?>
<!-- Generator: Adobe Illustrator 21.1.0, SVG Export Plug-In . SVG Version: 6.00 Build 0)  -->
<svg version="1.1" xmlns="http://www.w3.org/2000/svg" xmlns:xlink="http://www.w3.org/1999/xlink" x="0px" y="0px"
	 viewBox="0 0 120 110" style="enable-background:new 0 0 120 110;" xml:space="preserve">
<style type="text/css">
	.st0{opacity:0.6;}
	.st1{clip-path:url(#SVGID_2_);}
	.st2{fill:#DB3535;}
	.st3{fill:#F79C2F;stroke:#CC6633;stroke-miterlimit:10;}
	.st4{fill:#391910;}
	.st5{fill:#FFFFFF;}
	.st6{fill:none;stroke:#391910;stroke-miterlimit:10;}
	.st7{fill:none;stroke:#000000;stroke-miterlimit:10;}
	.st8{fill:#AAAAAA;stroke:#888888;stroke-miterlimit:10;}
	.st9{fill:#3156F4;stroke:#FF002B;stroke-miterlimit:10;}
	.st10{fill:#F79C2F;stroke:#CC6633;stroke-width:2;stroke-miterlimit:10;}
	.st11{fill:#446CB4;stroke:#DB4646;stroke-miterlimit:10;}
	.st12{fill:#CC6633;}
	.st13{fill:#DB4646;stroke:#DB4646;stroke-miterlimit:10;}
	.st14{fill:#FF69B4;}
</style>
<g id="Layer_1">
</g>
<g id="Pattern">
	<g>
		<path class="st3" d="M98.9,35.8c0,0,0-16.2-3.2-22.7c-3.2-6.5-6.5-6.5-6.5-6.5s0-3.2-6.5,6.5s-6.5,13-6.5,13s-9.7-3.2-16.2-3.2
			s-16.2,3.2-16.2,3.2s0-3.2-6.5-13s-6.5-6.5-6.5-6.5s-3.2,0-6.5,6.5s-3.2,22.7-3.2,22.7c0,25.9-19.4,42.1-19.4,42.1
			C34.1,103.8,60,103.8,60,103.8s25.9,0,58.3-25.9C118.3,77.9,98.9,61.7,98.9,35.8z"/>
		<g>
			<g>
				<ellipse class="st4" cx="43" cy="58.6" rx="6.5" ry="7.9"/>
				<ellipse transform="matrix(0.955 -0.2966 0.2966 0.955 -14.496 16.012)" class="st5" cx="45.5" cy="55.8" rx="2.2" ry="3.3"/>
			</g>
			<g>
				<ellipse class="st4" cx="77" cy="58.6" rx="6.5" ry="7.9"/>
				<ellipse transform="matrix(0.955 -0.2966 0.2966 0.955 -12.9662 26.0949)" class="st5" cx="79.5" cy="55.8" rx="2.2" ry="3.3"/>
			</g>
		</g>
		<g>
			<path class="st6" d="M43.8,76.3c0,0,8.1,17.8,16.2,0c0,0,8.1,17.8,16.2,0"/>
			<path class="st4" d="M55,72.5c-0.3,1.1,2.2,3.4,5,3.4s5.3-2.3,5-3.4C64.5,70.6,55.5,70.6,55,72.5z"/>
		</g>
		<line class="st7" x1="30.5" y1="74.3" x2="15.8" y2="71.4"/>
		<line class="st7" x1="30.6" y1="78.6" x2="13.8" y2="81.1"/>
		<line class="st7" x1="87.8" y1="74.3" x2="102.5" y2="71.4"/>
		<line class="st7" x1="87.8" y1="78.6" x2="104.6" y2="81.1"/>
	</g>
</g>
<g id="Layer_3">
</g>
</svg>
