<?xml version="1.0" encoding="utf-8"?>
<!-- Generator: Adobe Illustrator 21.1.0, SVG Export Plug-In . SVG Version: 6.00 Build 0)  -->
<svg version="1.1" xmlns="http://www.w3.org/2000/svg" xmlns:xlink="http://www.w3.org/1999/xlink" x="0px" y="0px"
	 viewBox="0 0 220 195" style="enable-background:new 0 0 220 195;" xml:space="preserve">
<style type="text/css">
	.st0{opacity:0.6;}
	.st1{clip-path:url(#SVGID_2_);}
	.st2{fill:#DB3535;}
	.st3{fill:#F79C2F;stroke:#CC6633;stroke-miterlimit:10;}
	.st4{fill:#391910;}
	.st5{fill:#FFFFFF;}
	.st6{fill:none;stroke:#391910;stroke-miterlimit:10;}
	.st7{fill:none;stroke:#000000;stroke-miterlimit:10;}
	.st8{fill:#AAAAAA;stroke:#888888;stroke-miterlimit:10;}
	.st9{fill:#3156F4;stroke:#FF002B;stroke-miterlimit:10;}
	.st10{fill:#F79C2F;stroke:#CC6633;stroke-width:2;stroke-miterlimit:10;}
	.st11{fill:#446CB4;stroke:#DB4646;stroke-miterlimit:10;}
	.st12{fill:#CC6633;}
	.st13{fill:#DB4646;stroke:#DB4646;stroke-miterlimit:10;}
	.st14{fill:#FF69B4;}
</style>
<g id="Layer_1">
</g>
<g id="Pattern">
	<g>
		<path class="st3" d="M37.8,135c0,0-12.1,13.6-13.6,24.2s-3,21.2-3,21.2s6.1,13.6,16.7,0s16.7-19.7,16.7-19.7s31.8-3,36.3-6.1
			c4.5-3,28.8,0,28.8,0s36.3,3,48.4-18.2s13.6-22.7,15.1-31.8c1.5-9.1-7.6-30.3-7.6-30.3l-54.5-4.5c0,0-12.1,4.5-18.2,13.6
			c0,0,4.5-13.6,0-19.7c-4.5-6.1-21.2-15.1-21.2-15.1S66.6,41.2,56,42.7c-10.6,1.5-15.1-3-15.1-3s-7.6-7.6-9.1-15.1
			S27.2,4.9,18.1,9.4s-7.6,12.1-7.6,12.1s0,9.1,6.1,21.2s15.1,22.7,15.1,22.7S39.3,73,39.3,76C39.3,79,31.8,103.2,37.8,135z"/>
		<path class="st3" d="M27.9,179c0,0-2.4,3.9-4.5,4.3"/>
		<path class="st3" d="M30.8,181.9c0,0-2,4.1-4.1,4.7"/>
		<ellipse class="st12" cx="19.6" cy="23.8" rx="5.3" ry="4.5"/>
		<circle class="st12" cx="13.6" cy="18.5" r="1.5"/>
		<circle class="st12" cx="25.7" cy="17" r="1.5"/>
		<circle class="st12" cx="21.2" cy="13.9" r="1.5"/>
		<circle class="st12" cx="16.6" cy="15.4" r="1.5"/>
		<path class="st13" d="M35.5,97.9c0,0,53,7.6,68.1-18.2l-6.1,30.3l18.2-12.1c0,0,10.6-12.7,7.6-27.9l6.1,0.6
			c0,0-6.1,98.4,43.9,19.7h7.6c0,0-12.1,12.1-13.6,36.3l1.5,19.7c0,0-21.2,15.1-71.1,6.1c0,0-12.1-25.7-62.1-27.2
			C35.5,125.2,34,125.2,35.5,97.9z"/>
		<path class="st3" d="M105.2,80.5c0,0-12.9,22.7-14.4,31.8c-1.5,9.1,1.5,12.1,1.5,12.1s6.1,4.5,10.6,0c4.5-4.5,4.5-15.1,4.5-15.1
			s4.2-10.6,8.8-12.1"/>
		<path class="st3" d="M183.3,102.5c0,0,0.6,27.2-2.4,34.8c-3,7.6-4.5,12.1-7.6,13.6s-39.6,6.3-39.6,6.3s-7.3-1.7-4.3-7.8
			c3-6.1,4.5-6.1,4.5-6.1s1.5-1.5,7.6-1.5c6.1,0,15.1,0,15.1,0s7.6,0,9.1-3s3-12.1,3-12.1"/>
		<path class="st3" d="M202.1,44.7c0,0,2.9-12.5,1.5-18c-1.3-5.6-3.8-6.1-3.8-6.1s0.6-2.5-6.1,3.8c-6.7,6.3-7.3,8.8-7.3,8.8
			s-6.9-4.2-11.9-5.4c-5-1.2-13-0.4-13-0.4s0.6-2.5-2.7-11.1c-3.3-8.6-3.8-6.1-3.8-6.1s-2.5-0.6-6.1,3.8c-3.6,4.4-6.5,16.9-6.5,16.9
			c-4.6,20-22.5,29-22.5,29C140.1,85.5,160,90.1,160,90.1s20,4.6,49.5-9.6C209.5,80.6,197.4,64.6,202.1,44.7z"/>
		<g>
			<g>
				
					<ellipse transform="matrix(0.2251 -0.9743 0.9743 0.2251 69.2016 191.5057)" class="st4" cx="155" cy="52.2" rx="6.3" ry="5.2"/>
				
					<ellipse transform="matrix(0.9973 -7.404579e-02 7.404579e-02 0.9973 -3.3114 11.7957)" class="st5" cx="157.4" cy="50.6" rx="1.7" ry="2.6"/>
			</g>
			<g>
				
					<ellipse transform="matrix(0.2251 -0.9743 0.9743 0.2251 83.5972 221.7027)" class="st4" cx="181.2" cy="58.3" rx="6.3" ry="5.2"/>
				
					<ellipse transform="matrix(0.9973 -7.404579e-02 7.404579e-02 0.9973 -3.6874 13.7509)" class="st5" cx="183.6" cy="56.6" rx="1.7" ry="2.6"/>
			</g>
		</g>
		<line class="st7" x1="142.6" y1="62.2" x2="131.8" y2="57.3"/>
		<line class="st7" x1="141.9" y1="65.5" x2="128.5" y2="64.4"/>
		<path class="st14" d="M158.5,73.7c0,0,1.3,15.2,10.3,2.3c0,0-3.9-4.6-3.9-7.6C163.4,71.5,158.5,73.7,158.5,73.7z"/>
		<g>
			<path class="st6" d="M152.5,66.1c0,0,3.1,15.2,12.5,2.9c0,0,3.1,15.2,12.5,2.9"/>
			<path class="st4" d="M161.7,65.1c-0.4,0.8,1.1,3,3.3,3.5c2.2,0.5,4.5-0.8,4.5-1.7C169.4,65.4,162.4,63.8,161.7,65.1z"/>
		</g>
	</g>
</g>
<g id="Layer_3">
</g>
</svg>
