<?xml version="1.0" encoding="utf-8"?>
<!-- Generator: Adobe Illustrator 21.1.0, SVG Export Plug-In . SVG Version: 6.00 Build 0)  -->
<svg version="1.1" xmlns="http://www.w3.org/2000/svg" xmlns:xlink="http://www.w3.org/1999/xlink" x="0px" y="0px"
	 viewBox="0 0 306 195" style="enable-background:new 0 0 306 195;" xml:space="preserve">
<style type="text/css">
	.st0{opacity:0.6;}
	.st1{clip-path:url(#SVGID_2_);}
	.st2{fill:#DB3535;}
	.st3{fill:#F79C2F;stroke:#CC6633;stroke-miterlimit:10;}
	.st4{fill:#391910;}
	.st5{fill:#FFFFFF;}
	.st6{fill:none;stroke:#391910;stroke-miterlimit:10;}
	.st7{fill:none;stroke:#000000;stroke-miterlimit:10;}
	.st8{fill:#AAAAAA;stroke:#888888;stroke-miterlimit:10;}
	.st9{fill:#3156F4;stroke:#FF002B;stroke-miterlimit:10;}
	.st10{fill:#F79C2F;stroke:#CC6633;stroke-width:2;stroke-miterlimit:10;}
	.st11{fill:#446CB4;stroke:#DB4646;stroke-miterlimit:10;}
	.st12{fill:#66C3A2;stroke:#9072B3;stroke-miterlimit:10;}
	.st13{fill:#66C3A2;stroke:#9072B3;stroke-width:2;stroke-miterlimit:10;}
	.st14{stroke:#AAAAAA;stroke-width:2;stroke-miterlimit:10;}
	.st15{fill:none;stroke:#FFFFFF;stroke-miterlimit:10;}
	.st16{fill:#AAAAAA;stroke:#AAAAAA;stroke-miterlimit:10;}
	.st17{fill:#FFFFFF;stroke:#AAAAAA;stroke-miterlimit:10;}
	.st18{fill:#FFFFFF;stroke:#AAAAAA;stroke-width:2;stroke-miterlimit:10;}
	.st19{fill:none;stroke:#AAAAAA;stroke-miterlimit:10;}
	.st20{fill:#DB4646;stroke:#DB4646;stroke-miterlimit:10;}
	.st21{fill:#CC6633;}
	.st22{fill:#FF69B4;}
</style>
<g id="Layer_1">
</g>
<g id="Pattern">
	<polygon class="st13" points="44.7,160.4 7.5,189.5 290.9,189.5 260.1,160.4 	"/>
	<path class="st14" d="M280.6,21.2c0,0-22.8,19-24.7,49.4s-15.2,17.1-15.2,17.1s-15.2-11.4-28.5-1.9c-13.3,9.5-26.6,24.7-26.6,24.7
		s-15.2,17.1-30.4,19c-15.2,1.9-15.2,1.9-15.2,1.9s-13.3-3.8-15.2-5.7c-1.9-1.9-15.2,7.6-15.2,17.1s3.8,11.4,3.8,11.4
		s-5.7,7.6-20.9,11.4s-30.4,3.8-30.4,3.8s-9.5,1.9-9.5,7.6c0,5.7,1.9,5.7,1.9,5.7H87c0,0,11.4,0,28.5-7.6c0,0,5.7-3.8,11.4,1.9
		c5.7,5.7,72.1,7.6,93-9.5c0,0,32.3-1.9,41.8-7.6c0,0-7.6-41.8,7.6-60.7c0,0,5.7-5.3,5.7-24.7c0-11.4,5.7-28.5,5.7-28.5
		s11.4-17.1,19-24.7s0-11.4,0-11.4S290.1,11.7,280.6,21.2z"/>
	<path class="st14" d="M227.5,137c0,0-17.1,24.7,3.8,30.4l-17.1,7.6c0,0-5.7,5.7,0,7.6c5.7,1.9,17.1,0,17.1,0s28.5-11.4,30.4-22.8"
		/>
	<path class="st14" d="M137.8,98.4c0,0-1.1-12.6-4.1-17.4c-3-4.8-5.5-4.6-5.5-4.6s-0.2-2.5-4.6,5.5s-4.1,10.5-4.1,10.5
		s-7.8-1.9-12.8-1.4c-5,0.4-12.4,3.6-12.4,3.6s-0.2-2.5-5.9-9.6c-5.7-7.1-5.5-4.6-5.5-4.6s-2.5,0.2-4.6,5.5c-2.1,5.3-1,17.9-1,17.9
		c1.8,20.2-12.2,34.1-12.2,34.1c27,17.9,47.1,16.1,47.1,16.1s20.2-1.8,43.6-24.2C155.8,129.8,139.6,118.5,137.8,98.4z"/>
	<path class="st15" d="M97.8,133.6c0,0,7.5,13.3,12.6-1.1c0,0,7.5,13.3,12.6-1.1"/>
	<path class="st16" d="M106.2,129.9c-0.2,0.9,1.9,2.5,4.2,2.3s4-2.1,3.7-3C113.5,127.8,106.4,128.4,106.2,129.9z"/>
	<line class="st15" x1="87.3" y1="133" x2="75.6" y2="131.7"/>
	<line class="st15" x1="87.6" y1="136.3" x2="74.7" y2="139.4"/>
	<line class="st15" x1="131.8" y1="129" x2="143.1" y2="125.7"/>
	<line class="st15" x1="132.1" y1="132.4" x2="145.4" y2="133.2"/>
	<path class="st15" d="M85.8,123.9c0,0,6.4-12.3,15.9-1.9"/>
	<path class="st15" d="M130.7,120.5c0,0-8-11.3-16,0.3"/>
	<path class="st17" d="M240.5,178.5c0,0-8.3-0.3-16-8l-10.3,4.4c0,0-5.7,5.7,0,7.6c5.7,1.9,17.1,0,17.1,0L240.5,178.5z"/>
	<path class="st18" d="M70,169c-3.3,0.2-7.2,0.1-7.2,0.1s-9.5,1.9-9.5,7.6s1.9,5.7,1.9,5.7H70"/>
	<path class="st19" d="M53.3,177.1c0,0,3.7-3.1,5.7-3.1"/>
	<path class="st19" d="M54.3,180.1c0,0,3.7-3.1,5.7-3.1"/>
	<path class="st19" d="M211.3,179.1c0,0,3.7-3.1,5.7-3.1"/>
	<path class="st19" d="M212.3,182.1c0,0,3.7-3.1,5.7-3.1"/>
</g>
<g id="Layer_3">
</g>
</svg>
