<?xml version="1.0" encoding="utf-8"?>
<!-- Generator: Adobe Illustrator 21.1.0, SVG Export Plug-In . SVG Version: 6.00 Build 0)  -->
<svg version="1.1" xmlns="http://www.w3.org/2000/svg" xmlns:xlink="http://www.w3.org/1999/xlink" x="0px" y="0px"
	 viewBox="0 0 220 195" style="enable-background:new 0 0 220 195;" xml:space="preserve">
<style type="text/css">
	.st0{opacity:0.6;}
	.st1{clip-path:url(#SVGID_2_);}
	.st2{fill:#DB3535;}
	.st3{fill:#F79C2F;stroke:#CC6633;stroke-miterlimit:10;}
	.st4{fill:#391910;}
	.st5{fill:#FFFFFF;}
	.st6{fill:none;stroke:#391910;stroke-miterlimit:10;}
	.st7{fill:none;stroke:#000000;stroke-miterlimit:10;}
	.st8{fill:#AAAAAA;stroke:#888888;stroke-miterlimit:10;}
	.st9{fill:#3156F4;stroke:#FF002B;stroke-miterlimit:10;}
	.st10{fill:#F79C2F;stroke:#CC6633;stroke-width:2;stroke-miterlimit:10;}
	.st11{fill:#446CB4;stroke:#DB4646;stroke-miterlimit:10;}
	.st12{fill:#CC6633;}
	.st13{fill:#DB4646;stroke:#DB4646;stroke-miterlimit:10;}
	.st14{fill:#FF69B4;}
</style>
<g id="Layer_1">
</g>
<g id="Pattern">
	<g>
		<path class="st10" d="M210.3,111.4c-1.7-7.5-4.9-13.3-11.3-24.9c-1.4-2.6-4.1-7.2-9.1-9.1c-1.4-0.5-4.5-1.7-6.8,0
			c-1.9,1.3-2.2,3.7-2.3,4.5c-0.4,3.5,1.2,6.1,4.5,11.3c4.2,6.8,6.3,10.2,6.8,11.3c1.4,3.5,0.8,4.1,2.3,13.6
			c1.8,11.7,2.9,12,2.3,15.9c-0.8,5-3.8,12.2-9.1,13.6c-3.8,1-5.8-1.7-9.1-2.2c1.7-4.7,2.7-10.1,2.3-15.9
			c-0.9-12.2-7.5-19.6-20.4-34C149.6,83.5,128.8,60.8,99.2,57c-6.3-0.8-10.6-0.5-13.6,0C73.7,58.8,56,66.5,51.6,82
			c-2.5,8.6,0.1,16.3,2.3,22.7c3.2,9.5,7.3,13.1,15.9,24.9c14.6,20.2,11.2,21.8,20.4,31.7c6.9,7.5,16.5,17.9,31.7,20.4
			c22.9,3.7,40.5-13.3,43.1-15.9c0.5-0.5,1.4-1.4,2.3-2.4c2.5-1,6.4-3.5,11.3-2.1c2.4,0.7,2.3,1.6,4.5,2.3c7.8,2.5,17-5.7,18.1-6.8
			c5.8-5.3,7.8-11.6,9.1-15.9C214.1,128.4,211.7,117.6,210.3,111.4z"/>
		
			<rect x="33.6" y="107.2" transform="matrix(0.7458 -0.6662 0.6662 0.7458 -44.9446 103.432)" class="st8" width="158.9" height="6.8"/>
		
			<rect x="43.3" y="149.8" transform="matrix(0.751 -0.6603 0.6603 0.751 -97.9259 73.8861)" class="st8" width="11.3" height="34"/>
		
			<rect x="37.1" y="161" transform="matrix(0.751 -0.6603 0.6603 0.751 -104.1827 70.5567)" class="st8" width="8.7" height="24.9"/>
		
			<rect x="32.4" y="170.6" transform="matrix(0.751 -0.6603 0.6603 0.751 -108.9815 68.095)" class="st8" width="6.8" height="15.9"/>
		
			<rect x="170.6" y="37.3" transform="matrix(-0.751 0.6603 -0.6603 -0.751 344.5311 -21.2287)" class="st8" width="11.3" height="34"/>
		
			<rect x="179.4" y="35.2" transform="matrix(-0.751 0.6603 -0.6603 -0.751 353.3606 -37.8216)" class="st8" width="8.7" height="24.9"/>
		
			<rect x="186" y="34.6" transform="matrix(-0.751 0.6603 -0.6603 -0.751 359.8889 -50.5479)" class="st8" width="6.8" height="15.9"/>
		
			<ellipse transform="matrix(0.5507 -0.8347 0.8347 0.5507 -89.9835 166.6503)" class="st10" cx="109.8" cy="166.9" rx="9.4" ry="19.5"/>
		<ellipse transform="matrix(0.96 -0.2801 0.2801 0.96 -25.6588 49.9578)" class="st10" cx="162" cy="114.8" rx="9.4" ry="19.5"/>
		<path class="st10" d="M64,89.9c0,0-4.5-6.8-9.1,0c-4.5,6.8-4.5,9.1-4.5,9.1s-2.3,6.8,9.1,13.6l6.8,4.5c0,0,6.8,4.5,11.3-2.3
			c4.5-6.8,0-11.3,0-11.3L64,89.9z"/>
		<path class="st10" d="M89,67.2c0,0-2.3-2.3,4.5-9.1c6.8-6.8,18.1,6.8,18.1,6.8l4.5,4.5c0,0,4.5,6.8,4.5,9.1c0,2.3-2.3,4.5-2.3,4.5
			l-6.8,4.5c0,0-2.3,2.3-6.8-2.3L89,67.2"/>
		<path class="st11" d="M68.6,89.9c0,0-4.5,0-6.8,4.5C59.5,99,57.2,108,57.2,108s-2.3,2.3,2.3,4.5c4.5,2.3,4.5,0,4.5,0
			s4.5-15.9,9.1-15.9L68.6,89.9z"/>
		<path class="st11" d="M107.1,60.4c0,0-13.6,11.3-13.6,13.6l9.1,9.1c0,0,4.5-9.1,13.6-11.3C116.2,71.8,113.9,62.7,107.1,60.4z"/>
		<path class="st10" d="M58.1,17.4c0,0-7.8-8.5-12.6-10.3s-6.5-0.3-6.5-0.3s-1.6-1.7-0.3,6.5s2.9,9.9,2.9,9.9s-6.6,3-10,6.1
			s-6.9,9.5-6.9,9.5s-1.6-1.7-9.6-3.6S8.5,35,8.5,35s-1.7,1.6-0.3,6.5s9.3,13.4,9.3,13.4C30,68.4,27.7,86.3,27.7,86.3
			c29.4-2.1,43-14.6,43-14.6S84.2,59.1,88.6,30C88.6,30,70.6,30.9,58.1,17.4z"/>
		<g>
			<g>
				
					<ellipse transform="matrix(0.7341 -0.6791 0.6791 0.7341 -27.5732 42.0444)" class="st4" cx="39.9" cy="56.2" rx="4.7" ry="5.6"/>
				
					<ellipse transform="matrix(0.4996 -0.8663 0.8663 0.4996 -26.4479 61.3376)" class="st5" cx="39.9" cy="53.6" rx="1.5" ry="2.4"/>
			</g>
			<g>
				
					<ellipse transform="matrix(0.7341 -0.6791 0.6791 0.7341 -11.699 49.7325)" class="st4" cx="57.6" cy="39.8" rx="4.7" ry="5.6"/>
				
					<ellipse transform="matrix(0.4996 -0.8663 0.8663 0.4996 -3.3374 68.4978)" class="st5" cx="57.6" cy="37.1" rx="1.5" ry="2.4"/>
			</g>
		</g>
		<g>
			<path class="st6" d="M48.9,65.1c0,0,12.8,5.4,8.5-7.8c0,0,12.8,5.4,8.5-7.8"/>
			<path class="st4" d="M52.9,57.7c0.4,0.7,2.8,0.7,4.3-0.7s1.7-3.8,1-4.2C57,52.1,52.2,56.5,52.9,57.7z"/>
		</g>
		<line class="st7" x1="41" y1="70.5" x2="31.9" y2="76"/>
		<line class="st7" x1="43.1" y1="72.7" x2="35.5" y2="82.1"/>
		<line class="st7" x1="70.9" y1="42.8" x2="77.2" y2="34.2"/>
		<line class="st7" x1="72.9" y1="45.1" x2="82.9" y2="38.2"/>
		<path class="st11" d="M63.1,21.3L20.4,59.5c-0.3,0.2-0.7,0.2-0.9-0.1l-5.2-5.8C14,53.4,14,53,14.3,52.7L57,14.6
			c0.3-0.2,0.7-0.2,0.9,0.1l5.2,5.8C63.3,20.7,63.3,21.1,63.1,21.3z"/>
	</g>
</g>
<g id="Layer_3">
</g>
</svg>
