<?xml version="1.0" encoding="utf-8"?>
<!-- Generator: Adobe Illustrator 19.1.0, SVG Export Plug-In . SVG Version: 6.00 Build 0)  -->
<svg version="1.1" xmlns="http://www.w3.org/2000/svg" xmlns:xlink="http://www.w3.org/1999/xlink" x="0px" y="0px"
	 viewBox="0 0 215.3 177.2" style="enable-background:new 0 0 215.3 177.2;" xml:space="preserve">
<style type="text/css">
	.st6{fill:#F79C2F;stroke:#CC6633;stroke-width:2;stroke-miterlimit:10;}
	.st9{fill:#391910;}
	.st10{fill:#FFFFFF;}
	.st11{fill:none;stroke:#391910;stroke-miterlimit:10;}
	.st12{fill:none;stroke:#000000;stroke-miterlimit:10;}
	.st15{fill:#446CB4;stroke:#DB4646;stroke-miterlimit:10;}
	.st27{fill:#AAAAAA;stroke:#888888;stroke-width:2;stroke-miterlimit:10;}
</style>
<g id="Layer_1">
</g>
<g id="Pattern">
	<g>
		<path class="st6" d="M54.5,81c0,0,104.6-30.9,139.7-0.1s5.7,74,5.7,74H48c0,0-50.5-30.6-19.2-75.8L54.5,81z"/>
		<path class="st6" d="M27.6,81.1c0,0-22.8,32.3-13.2,60.8s40.1,11.9,40.1,11.9s4.5-21.2-10.5-19.1"/>
		<path class="st6" d="M94.1,78.9c0,0,23.5,34.5,13.8,63s-39.6,11.9-39.6,11.9s-5.1-21.2,9.9-19.1"/>
		<g>
			<path class="st6" d="M91.9,30.5c0,0,0.3-14.5-2.5-20.3c-2.8-5.9-5.7-5.9-5.7-5.9s0.1-2.9-5.9,5.7c-6,8.6-6,11.5-6,11.5
				s-8.6-3.1-14.4-3.2c-5.8-0.1-14.5,2.6-14.5,2.6s0.1-2.9-5.6-11.7c-5.6-8.8-5.7-5.9-5.7-5.9s-2.9-0.1-5.9,5.7
				c-3,5.7-3.3,20.2-3.3,20.2C21.9,52.2,4.3,66.4,4.3,66.4c28.5,23.8,51.7,24.2,51.7,24.2s23.2,0.5,52.6-22.1
				C108.5,68.5,91.5,53.7,91.9,30.5z"/>
			<g>
				<g>
					
						<ellipse transform="matrix(0.9998 2.052156e-002 -2.052156e-002 0.9998 1.0304 -0.8424)" class="st9" cx="41.6" cy="49.8" rx="5.9" ry="7.1"/>
					<ellipse transform="matrix(0.9609 -0.277 0.277 0.9609 -11.3973 14.0003)" class="st10" cx="43.9" cy="47.3" rx="1.9" ry="3"/>
				</g>
				<g>
					
						<ellipse transform="matrix(0.9998 2.052156e-002 -2.052156e-002 0.9998 1.0496 -1.4663)" class="st9" cx="72" cy="50.4" rx="5.9" ry="7.1"/>
					<ellipse transform="matrix(0.9609 -0.277 0.277 0.9609 -10.3807 22.4464)" class="st10" cx="74.3" cy="48" rx="1.9" ry="3"/>
				</g>
			</g>
			<g>
				<path class="st11" d="M42,65.7c0,0,6.9,16.1,14.5,0.3c0,0,6.9,16.1,14.5,0.3"/>
				<path class="st9" d="M52,62.5c-0.3,1,1.9,3,4.5,3.1s4.8-2,4.6-2.9C60.6,61,52.5,60.8,52,62.5z"/>
			</g>
			<line class="st12" x1="30.1" y1="63.6" x2="17" y2="60.7"/>
			<line class="st12" x1="30.1" y1="67.5" x2="15" y2="69.4"/>
			<line class="st12" x1="81.4" y1="64.7" x2="94.6" y2="62.3"/>
			<line class="st12" x1="81.2" y1="68.5" x2="96.2" y2="71.1"/>
			<path class="st15" d="M93.5,36.3l-72.3,1.5c-0.4,0-0.7-0.3-0.7-0.6l-0.2-10.1c0-0.4,0.3-0.7,0.6-0.7l72.3-1.5
				c0.4,0,0.7,0.3,0.7,0.6l0.2,10.1C94.2,36,93.9,36.3,93.5,36.3z"/>
		</g>
		<path class="st27" d="M176.8,111c2.1-2.1,5-10.1,5.7-12.1c3.3-9.9-0.4-19.2-1-20.6c-0.6-1.5-1.4-3.2-2.8-5.1
			c-2.3-3-5.7-5.3-12.9-7.4c-12.1-3.5-21.7-2.5-32.5-1.4c-2.3,0.2-5.2,0.6-8.5,2.3c0,0-5.1,2.6-8.8,7.9c-6.1,8.9-3.1,24.2-1.4,28.4
			c1.2,2.9,1.8,4.3,2.8,5.3c0.3,0.4,1,1,1.3,2c0.4,1.2,0.5,2.4,0.1,2.9c-7.4,12.1-6.6,19.2-6.4,22.3c1.2,15.1,12.4,24.5,13.6,25.4
			c0.6,0.5,1.3,0.9,1.3,0.9c2.3,1.4,4.5,1.8,6.1,2c7.7,1.1,10.5,1.4,17,1.3c3.2,0,11.4-0.3,14.9-2.6c1.6-1,2.8-1.8,3.8-2.7
			c2.8-2.7,4.2-4,5.4-5.5c5.4-7,6.6-15.1,6.8-16.4c0.9-6.4-0.3-11.2-0.6-12.5c-1.1-4.6-3.1-8.1-4.5-10.2c-0.3-0.5-0.6-1.2-0.6-2
			C175.8,112,176.6,111.2,176.8,111z M168.4,98.2c0,0-1.2,2.6-3,4c-1.8,1.4-4.3,0-4.3,0s-7.4-3.3-14.4-3.3s-13.1,3-13.1,3
			s-1.7,1.1-4.1-0.6c-2.4-1.6-3.6-9.7-3.6-9.7c-0.3-8,1.6-9.5,1.6-9.5s1.3-2,5.2-3c4-1,11.3-1.1,11.3-1.1h7.7
			c14.7,1.3,15,3.3,15,3.3s2.5,1.6,3.2,6C170.6,91.5,168.4,98.2,168.4,98.2z"/>
		<path class="st6" d="M211.2,122.1c0,3.7-1.6,28-19.9,41.7c-16.8,12.6-43.4,12.2-48,4c-1.1-1.9-1.8-5.7-0.2-7.3
			c1.6-1.6,5-0.4,7.5,0.2c0,0,11.2,2.7,23.7-2.5c10-4.2,14.4-13.8,15.7-16.6c2.3-4.7,3.2-9.1,3.6-11.9"/>
	</g>
</g>
<g id="Layer_3">
</g>
</svg>
