<?xml version="1.0" encoding="utf-8"?>
<!-- Generator: Adobe Illustrator 19.1.0, SVG Export Plug-In . SVG Version: 6.00 Build 0)  -->
<svg version="1.1" xmlns="http://www.w3.org/2000/svg" xmlns:xlink="http://www.w3.org/1999/xlink" x="0px" y="0px"
	 viewBox="0 0 151 208.5" style="enable-background:new 0 0 151 208.5;" xml:space="preserve">
<style type="text/css">
	.st2{fill:#F79C2F;stroke:#CC6633;stroke-width:2;stroke-miterlimit:10;}
	.st6{fill:#391910;}
	.st7{fill:#FFFFFF;}
	.st8{fill:none;stroke:#391910;stroke-miterlimit:10;}
	.st9{fill:none;stroke:#000000;stroke-miterlimit:10;}
	.st24{fill:#AAAAAA;stroke:#888888;stroke-width:2;stroke-miterlimit:10;}
	.st29{fill:#63CDF4;stroke:#E284B6;stroke-width:2;stroke-miterlimit:10;}
</style>

<g id="Pattern">
	<path class="st2" d="M31.1,85.7c0,0-17,9.9-21.5,50.9s6.2,68.7,6.2,68.7l85.7-3.4c0,0-4.5-73.5-29.8-111.5
		C54.3,64.3,31.1,85.7,31.1,85.7z"/>
	<path class="st2" d="M92.8,31.1c0,0,0.3-14.5-2.5-20.3c-2.8-5.9-5.7-5.9-5.7-5.9s0.1-2.9-5.9,5.7c-6,8.6-6,11.5-6,11.5
		s-8.6-3.1-14.4-3.2c-5.8-0.1-14.5,2.6-14.5,2.6s0.1-2.9-5.6-11.7c-5.6-8.8-5.7-5.9-5.7-5.9s-2.9-0.1-5.9,5.7
		c-3,5.7-3.3,20.2-3.3,20.2C22.8,52.9,5.1,67,5.1,67c28.5,23.8,51.7,24.2,51.7,24.2s23.2,0.5,52.6-22.1
		C109.4,69.1,92.3,54.3,92.8,31.1z"/>
	<g>
		<g>
			
				<ellipse transform="matrix(0.9998 2.052156e-002 -2.052156e-002 0.9998 1.0438 -0.8591)" class="st6" cx="42.4" cy="50.4" rx="5.9" ry="7.1"/>
			<ellipse transform="matrix(0.9609 -0.277 0.277 0.9609 -11.5443 14.252)" class="st7" cx="44.7" cy="48" rx="1.9" ry="3"/>
		</g>
		<g>
			
				<ellipse transform="matrix(0.9998 2.052156e-002 -2.052156e-002 0.9998 1.063 -1.483)" class="st6" cx="72.8" cy="51.1" rx="5.9" ry="7.1"/>
			<ellipse transform="matrix(0.9609 -0.277 0.277 0.9609 -10.5277 22.6981)" class="st7" cx="75.1" cy="48.6" rx="1.9" ry="3"/>
		</g>
	</g>
	<g>
		<path class="st8" d="M42.8,66.3c0,0,6.9,16.1,14.5,0.3c0,0,6.9,16.1,14.5,0.3"/>
		<path class="st6" d="M52.8,63.1c-0.3,1,1.9,3,4.5,3.1s4.8-2,4.6-2.9C61.4,61.6,53.3,61.5,52.8,63.1z"/>
	</g>
	<line class="st9" x1="30.9" y1="64.3" x2="17.8" y2="61.4"/>
	<line class="st9" x1="30.9" y1="68.1" x2="15.8" y2="70"/>
	<line class="st9" x1="82.2" y1="65.3" x2="95.4" y2="63"/>
	<line class="st9" x1="82.1" y1="69.2" x2="97" y2="71.7"/>
	<path class="st29" d="M94.3,37L22,38.4c-0.4,0-0.7-0.3-0.7-0.6l-0.2-10.1c0-0.4,0.3-0.7,0.6-0.7l72.3-1.5c0.4,0,0.7,0.3,0.7,0.6
		L95,36.3C95,36.7,94.7,37,94.3,37z"/>
	<g>
		<path class="st29" d="M73.9,93.9C74.2,94.3,73.9,93.8,73.9,93.9L73.9,93.9z"/>
		<path class="st29" d="M74.2,94.4c-0.2-0.4-0.3-0.5-0.3-0.5c0-0.1-0.1-0.2-0.2-0.3c-26,5.4-43.9-6.9-43.9-6.9s0.3-0.4-1.3,1.1
			c-4.9,4.6-15.5,17.8-18.9,48.8c-4.5,41,6.2,68.7,6.2,68.7l85.7-3.4C101.5,202,97.3,133.3,74.2,94.4z M48.7,162.7
			c-15.7,0-28.4-14.8-28.4-33.1S33,96.5,48.7,96.5c15.7,0,28.4,14.8,28.4,33.1S64.4,162.7,48.7,162.7z"/>
	</g>
</g>
<g id="kitten-dumbbell-arm">
	<g>
		<circle class="st24" cx="123.6" cy="117.7" r="24.5"/>
		<path class="st2" d="M31.3,108.7c0,0,14.6-9.6,25.6,0s13.3,16,13.7,23.3c0,0,11.9,8.7,9.6,23.3l20.2-14.2l9.6-16
			c0,0,5.1-1.1,16.3-3.1c1.2,8.8-2.7,17.7-2.7,17.7s-26.5,55.8-35.2,56.3c-8.7,0.5-19.7-8.2-19.7-8.2s-21.5-18.3-30.7-43.5
			C38.1,144.4,17.1,122.5,31.3,108.7z"/>
		<circle class="st24" cx="100.5" cy="115.5" r="27.1"/>
		<circle class="st24" cx="100.2" cy="115.5" r="21.8"/>
		<circle class="st24" cx="100.5" cy="115.8" r="16.1"/>
	</g>
</g>
</svg>
