<?xml version="1.0" encoding="utf-8"?>
<!-- Generator: Adobe Illustrator 19.1.0, SVG Export Plug-In . SVG Version: 6.00 Build 0)  -->
<svg version="1.1" xmlns="http://www.w3.org/2000/svg" xmlns:xlink="http://www.w3.org/1999/xlink" x="0px" y="0px"
	 viewBox="0 0 150 150" style="enable-background:new 0 0 150 150;" xml:space="preserve">
<style type="text/css">
	.st0{opacity:0.6;}
	.st1{clip-path:url(#SVGID_2_);}
	.st2{fill:#F79C2F;stroke:#CC6633;stroke-width:2;stroke-miterlimit:10;}
	.st3{fill:#446CB4;}
	.st4{fill:#DB3535;}
	.st5{fill:#F79C2F;stroke:#CC6633;stroke-miterlimit:10;}
	.st6{fill:#391910;}
	.st7{fill:#FFFFFF;}
	.st8{fill:none;stroke:#391910;stroke-miterlimit:10;}
	.st9{fill:none;stroke:#000000;stroke-miterlimit:10;}
	.st10{fill:#AAAAAA;stroke:#888888;stroke-miterlimit:10;}
	.st11{fill:#3156F4;stroke:#FF002B;stroke-miterlimit:10;}
	.st12{fill:#446CB4;stroke:#DB4646;stroke-miterlimit:10;}
	.st13{fill:#66C3A2;stroke:#9072B3;stroke-miterlimit:10;}
	.st14{fill:#66C3A2;stroke:#9072B3;stroke-width:2;stroke-miterlimit:10;}
	.st15{stroke:#AAAAAA;stroke-width:2;stroke-miterlimit:10;}
	.st16{fill:none;stroke:#FFFFFF;stroke-miterlimit:10;}
	.st17{fill:#AAAAAA;stroke:#AAAAAA;stroke-miterlimit:10;}
	.st18{fill:#FFFFFF;stroke:#AAAAAA;stroke-miterlimit:10;}
	.st19{fill:#FFFFFF;stroke:#AAAAAA;stroke-width:2;stroke-miterlimit:10;}
	.st20{fill:none;stroke:#AAAAAA;stroke-miterlimit:10;}
	.st21{fill:#DB4646;stroke:#DB4646;stroke-miterlimit:10;}
	.st22{fill:#CC6633;}
	.st23{fill:#FF69B4;}
	.st24{fill:#AAAAAA;stroke:#888888;stroke-width:2;stroke-miterlimit:10;}
	.st25{fill:#DB4646;}
	.st26{fill:#FFD528;}
	.st27{fill:#E284B6;}
	.st28{fill:none;}
	.st29{fill:#FFD528;stroke:#65BC4C;stroke-width:2;stroke-miterlimit:10;}
	.st30{fill:#65BC4C;stroke:#FFD528;stroke-width:2;stroke-miterlimit:10;}
	.st31{fill:#65BC4C;}
	.st32{fill:none;stroke:#FFFFFF;stroke-width:4;stroke-linecap:round;stroke-miterlimit:10;}
	.st33{fill:#63CDF4;}
	.st34{fill:none;stroke:#000000;stroke-width:5;stroke-miterlimit:10;}
	.st35{fill:none;stroke:#FFD528;stroke-width:5;stroke-miterlimit:10;}
</style>
<g id="Layer_1">
</g>
<g id="Pattern">
</g>
<g id="Layer_3">
	<rect x="0" y="0" class="st33" width="150" height="150"/>
	<g>
		<polygon points="11.3,150 6.2,148.6 3.5,150 		"/>
		<polygon class="st26" points="6.2,148.6 11.3,150 14,150 19.5,147 12.5,145.1 		"/>
		<g>
			<polygon class="st28" points="0,150 3.5,150 6.2,148.6 0,146.9 			"/>
			<polygon class="st28" points="12.5,145.1 13.8,144.4 0,140.6 0,141.7 			"/>
			<polygon class="st28" points="13.6,83.3 14.3,82 0,85.9 0,87 			"/>
			<polygon class="st28" points="0,94 5.7,97.1 10.1,89.4 0,92.2 			"/>
			<polygon points="13.8,144.4 12.5,145.1 19.5,147 27.2,142.9 0,135.4 0,140.6 			"/>
			<polygon class="st26" points="0,146.9 6.2,148.6 12.5,145.1 0,141.7 			"/>
			<polygon class="st26" points="24.1,150 26.2,148.9 19.5,147 14,150 			"/>
			<polygon points="15.3,88 10.1,89.4 5.7,97.1 0,94 0,99.4 6.7,103.1 			"/>
			<polygon points="14.3,82 13.6,83.3 20.4,81.4 24.7,74 0,80.8 0,85.9 			"/>
			<polygon class="st26" points="0,92.2 10.1,89.4 13.6,83.3 0,87 			"/>
			<polygon class="st26" points="25.7,80 20.4,81.4 7.7,103.8 0,99.7 0,105.1 8.7,109.8 			"/>
			<polygon class="st26" points="10.1,89.4 15.3,88 6.7,103.1 0,99.4 0,99.7 7.7,103.8 20.4,81.4 13.6,83.3 			"/>
		</g>
	</g>
	<g>
		<polygon class="st28" points="150,85.9 140.2,88.6 141.5,89.4 150,87 		"/>
		<polygon points="147.8,92.8 141.2,94.6 150,99.4 150,94 		"/>
		<polygon points="140.2,88.6 150,85.9 150,80.8 126.8,87.1 134.5,91.3 141.5,89.4 		"/>
		<polygon class="st26" points="150,87 141.5,89.4 147.8,92.8 150,92.2 		"/>
		<polygon class="st26" points="134.5,91.3 127.8,93.1 150,105.1 150,99.7 		"/>
		<polygon class="st26" points="150,99.4 141.2,94.6 147.8,92.8 141.5,89.4 134.5,91.3 150,99.7 		"/>
		<polygon class="st28" points="150,140.6 139.7,137.8 140.4,139.1 150,141.7 		"/>
		<polygon class="st28" points="150,150 150,146.9 143.9,145.2 146.6,150 		"/>
		<polygon points="139.7,137.8 150,140.6 150,135.4 129.3,129.8 133.6,137.2 140.4,139.1 		"/>
		<polygon points="143.9,145.2 138.7,143.8 142.2,150 146.6,150 		"/>
		<polygon class="st26" points="150,141.7 140.4,139.1 143.9,145.2 150,146.9 		"/>
		<polygon class="st26" points="133.6,137.2 128.3,135.8 136.5,150 140.9,150 		"/>
		<polygon class="st26" points="142.2,150 138.7,143.8 143.9,145.2 140.4,139.1 133.6,137.2 140.9,150 		"/>
	</g>
	<g>
		<polygon class="st28" points="150,53.8 147.8,54.4 150,55.5 		"/>
		<polygon class="st28" points="146.6,0 148.3,2.9 150,1.9 150,0 		"/>
		<polygon class="st28" points="150,47.5 140.2,50.2 141.5,50.9 150,48.6 		"/>
		<polygon points="150,7.4 150,1.9 148.3,2.9 146.6,0 142.2,0 147.3,8.9 		"/>
		<polygon class="st26" points="146.3,9.6 140.9,0 136.5,0 145.3,15.6 150,13.1 150,7.6 		"/>
		<polygon class="st26" points="147.3,8.9 142.2,0 140.9,0 146.3,9.6 150,7.6 150,7.4 		"/>
		<polygon points="147.8,54.4 141.2,56.2 150,61 150,55.5 		"/>
		<polygon points="140.2,50.2 150,47.5 150,42.3 126.8,48.7 134.5,52.8 141.5,50.9 		"/>
		<polygon class="st26" points="134.5,52.8 127.8,54.7 150,66.7 150,61.2 		"/>
		<polygon class="st26" points="150,48.6 141.5,50.9 147.8,54.4 150,53.8 		"/>
		<polygon class="st26" points="150,61 141.2,56.2 147.8,54.4 141.5,50.9 134.5,52.8 150,61.2 		"/>
	</g>
	<g>
		<polygon class="st28" points="0,55.5 5.7,58.6 10.1,51 0,53.8 		"/>
		<polygon class="st28" points="13.6,44.9 14.3,43.6 0,47.5 0,48.6 		"/>
		<polygon points="0,1.9 0,7.4 12.8,0.4 11.3,0 3.5,0 		"/>
		<polygon class="st26" points="14,0 0,7.6 0,13.1 24.1,0 		"/>
		<polygon class="st26" points="12.8,0.4 0,7.4 0,7.6 14,0 11.3,0 		"/>
		<polygon points="14.3,43.6 13.6,44.9 20.4,43 24.7,35.6 0,42.3 0,47.5 		"/>
		<polygon points="15.3,49.6 10.1,51 5.7,58.6 0,55.5 0,61 6.7,64.6 		"/>
		<polygon class="st26" points="7.7,65.4 0,61.2 0,66.7 8.7,71.4 25.7,41.6 20.4,43 		"/>
		<polygon class="st26" points="0,53.8 10.1,51 13.6,44.9 0,48.6 		"/>
		<polygon class="st26" points="10.1,51 15.3,49.6 6.7,64.6 0,61 0,61.2 7.7,65.4 20.4,43 13.6,44.9 		"/>
	</g>
	<g>
		<g>
			<polygon class="st34" points="31.5,62.8 44.3,85.2 67.5,72.6 			"/>
			<polygon class="st35" points="30.5,68.8 43.3,91.2 66.5,78.6 			"/>
		</g>
		<g>
			<polygon class="st34" points="66.5,7 53.7,29.4 30.5,16.9 			"/>
			<polygon class="st35" points="67.5,13 54.7,35.4 31.5,22.9 			"/>
		</g>
		<g>
			<polygon class="st34" points="66.5,118.6 53.7,141 30.5,128.4 			"/>
			<polygon class="st35" points="67.5,124.6 54.7,147 31.5,134.4 			"/>
		</g>
	</g>
	<g>
		<g>
			<polygon class="st34" points="84.5,62.8 97.3,85.2 120.5,72.6 			"/>
			<polygon class="st35" points="83.5,68.8 96.3,91.2 119.5,78.6 			"/>
		</g>
		<g>
			<polygon class="st34" points="119.5,7 106.7,29.4 83.5,16.9 			"/>
			<polygon class="st35" points="120.5,13 107.7,35.4 84.5,22.9 			"/>
		</g>
		<g>
			<polygon class="st34" points="119.5,118.6 106.7,141 83.5,128.4 			"/>
			<polygon class="st35" points="120.5,124.6 107.7,147 84.5,134.4 			"/>
		</g>
	</g>
</g>
</svg>
