<?xml version="1.0" encoding="utf-8"?>
<!-- Generator: Adobe Illustrator 19.1.0, SVG Export Plug-In . SVG Version: 6.00 Build 0)  -->
<svg version="1.1" xmlns="http://www.w3.org/2000/svg" xmlns:xlink="http://www.w3.org/1999/xlink" x="0px" y="0px"
	 viewBox="0 0 150 150" style="enable-background:new 0 0 150 150;" xml:space="preserve">
<style type="text/css">
	.st0{opacity:0.6;}
	.st1{clip-path:url(#SVGID_2_);}
	.st2{fill:#446CB4;}
	.st3{fill:#F79C2F;stroke:#CC6633;stroke-width:2;stroke-miterlimit:10;}
	.st4{fill:#DB3535;}
	.st5{fill:#F79C2F;stroke:#CC6633;stroke-miterlimit:10;}
	.st6{fill:#391910;}
	.st7{fill:#FFFFFF;}
	.st8{fill:none;stroke:#391910;stroke-miterlimit:10;}
	.st9{fill:none;stroke:#000000;stroke-miterlimit:10;}
	.st10{fill:#AAAAAA;stroke:#888888;stroke-miterlimit:10;}
	.st11{fill:#3156F4;stroke:#FF002B;stroke-miterlimit:10;}
	.st12{fill:#446CB4;stroke:#DB4646;stroke-miterlimit:10;}
	.st13{fill:#66C3A2;stroke:#9072B3;stroke-miterlimit:10;}
	.st14{fill:#66C3A2;stroke:#9072B3;stroke-width:2;stroke-miterlimit:10;}
	.st15{stroke:#AAAAAA;stroke-width:2;stroke-miterlimit:10;}
	.st16{fill:none;stroke:#FFFFFF;stroke-miterlimit:10;}
	.st17{fill:#AAAAAA;stroke:#AAAAAA;stroke-miterlimit:10;}
	.st18{fill:#FFFFFF;stroke:#AAAAAA;stroke-miterlimit:10;}
	.st19{fill:#FFFFFF;stroke:#AAAAAA;stroke-width:2;stroke-miterlimit:10;}
	.st20{fill:none;stroke:#AAAAAA;stroke-miterlimit:10;}
	.st21{fill:#DB4646;stroke:#DB4646;stroke-miterlimit:10;}
	.st22{fill:#CC6633;}
	.st23{fill:#FF69B4;}
	.st24{fill:#AAAAAA;stroke:#888888;stroke-width:2;stroke-miterlimit:10;}
	.st25{fill:#66C3A2;}
	.st26{fill:#DB4646;}
	.st27{fill:#FFD528;}
	.st28{fill:#E284B6;}
	.st29{fill:none;}
</style>
<g id="Layer_1">
</g>
<g id="Pattern">
	<rect x="0" class="st2" width="150" height="150"/>
	<g>
		<polygon class="st28" points="150,110.7 113.4,130.2 115.9,134.4 150,116.3 		"/>
		<polygon class="st28" points="150,117.7 116.4,135.5 118.9,139.8 150,123.2 		"/>
		<polygon class="st28" points="150,124.6 119.4,140.8 122,145.1 150,130.2 		"/>
		<polygon class="st28" points="150,137.1 150,131.6 122.5,146.3 124.2,149.8 126.5,149.8 		"/>
		<polygon class="st28" points="150,138.5 129.1,149.8 139.5,149.8 150,144.1 		"/>
		<polygon class="st28" points="142.1,149.8 150,149.8 150,145.5 		"/>
	</g>
	<g>
		<polygon class="st28" points="36.2,96.8 38,90.4 0,110.7 0,116.3 		"/>
		<polygon class="st28" points="0,123.2 34.2,104.9 35.9,98.5 0,117.7 		"/>
		<polygon class="st28" points="0,130.2 32.1,113 33.8,106.5 0,124.6 		"/>
		<polygon class="st28" points="0,137.1 30.1,121 31.8,114.6 0,131.6 		"/>
		<polygon class="st28" points="0,144.1 28,129.1 29.7,122.6 0,138.5 		"/>
		<polygon class="st28" points="0,149.8 2.5,149.8 25.8,137.3 27.6,130.8 0,145.5 		"/>
		<polygon class="st28" points="15.6,149.8 23.7,145.3 25.3,139 5.2,149.8 		"/>
		<polygon class="st28" points="22.6,149.8 23.3,147.1 18.2,149.8 		"/>
	</g>
	<g>
		<polygon class="st28" points="124.2,-0.2 124.7,0.8 126.5,-0.2 		"/>
		<polygon class="st28" points="129.1,-0.2 125.3,1.7 127.7,6 139.5,-0.2 		"/>
		<polygon class="st28" points="150,-0.2 142.1,-0.2 128.3,7 130.9,11.2 150,1.1 		"/>
		<polygon class="st28" points="150,2.5 131.6,12.2 134.1,16.5 150,8 		"/>
		<polygon class="st28" points="150,9.4 134.6,17.5 137.1,21.8 150,15 		"/>
		<polygon class="st28" points="150,16.4 137.6,22.9 140.1,27.1 150,21.9 		"/>
		<polygon class="st28" points="150,23.3 140.6,28.2 143.1,32.5 150,28.9 		"/>
		<polygon class="st28" points="150,30.3 143.7,33.6 146.2,37.8 150,35.8 		"/>
		<polygon class="st28" points="150,37.2 146.7,38.9 149.2,43.2 150,42.8 		"/>
		<polygon class="st28" points="149.5,44.2 149.6,44.4 149.6,44.2 		"/>
	</g>
	<g>
		<polygon class="st28" points="0,42.8 13.6,35.4 15.3,29 0,37.2 		"/>
		<polygon class="st28" points="0,-0.2 0,1.1 2.5,-0.2 		"/>
		<polygon class="st28" points="5.2,-0.2 0,2.5 0,8 15.6,-0.2 		"/>
		<polygon class="st28" points="18.2,-0.2 0,9.4 0,15 21.8,3.4 22.6,-0.2 		"/>
		<polygon class="st28" points="0,21.9 19.8,11.3 21.5,4.8 0,16.4 		"/>
		<polygon class="st28" points="0,28.9 17.7,19.3 19.4,12.9 0,23.3 		"/>
		<polygon class="st28" points="0,35.8 15.6,27.4 17.4,21 0,30.3 		"/>
		<polygon class="st28" points="0,44.4 2.1,48.5 11.4,43.5 13.2,37.1 0,44.2 		"/>
		<polygon class="st28" points="5,53.8 9.3,51.6 10.9,45.1 2.6,49.6 		"/>
		<polygon class="st28" points="7.5,58.3 8.9,53.2 5.6,54.9 		"/>
	</g>
	<g>
		<polygon class="st28" points="40.8,61.1 43.2,65.4 74.2,48.9 108.5,30.5 110.2,24.1 74.2,43.3 		"/>
		<polygon class="st28" points="43.8,66.5 46.2,70.7 74.2,55.8 106.5,38.6 108.1,32.1 74.2,50.3 		"/>
		<polygon class="st28" points="46.8,71.8 48.7,75.1 49.3,76.1 51,75.1 74.2,62.8 104.4,46.6 106.1,40.2 74.2,57.2 		"/>
		<polygon class="st28" points="53.6,75.1 49.9,77.1 52.3,81.4 64.1,75.1 74.2,69.7 102.4,54.7 104,48.3 74.2,64.2 		"/>
		<polygon class="st28" points="66.7,75.1 52.9,82.5 55.3,86.8 74.2,76.7 77.1,75.1 100.3,62.7 101.9,56.3 74.2,71.1 		"/>
		<polygon class="st28" points="74.2,36.3 37.8,55.8 40.2,60.1 74.2,41.9 110.6,22.5 112.2,16 		"/>
		<polygon class="st28" points="62,98.5 64.4,102.8 74.2,97.5 94.1,86.9 95.8,80.5 74.2,92 		"/>
		<polygon class="st28" points="65,103.8 67.4,108.1 74.2,104.5 92.1,95 93.7,88.5 74.2,98.9 		"/>
		<polygon class="st28" points="68,109.2 70.4,113.5 74.2,111.5 90,103 91.6,96.6 74.2,105.9 		"/>
		<polygon class="st28" points="71.1,114.5 73.5,118.8 74.2,118.4 87.9,111.1 89.6,104.6 74.2,112.9 		"/>
		<polygon class="st28" points="74.1,119.9 74.2,120 76.5,124.1 85.9,119.1 87.5,112.7 74.2,119.8 		"/>
		<polygon class="st28" points="74.2,78.1 55.9,87.8 58.3,92.1 74.2,83.6 90.1,75.1 98.2,70.8 99.9,64.4 79.7,75.1 		"/>
		<polygon class="st28" points="74.2,85 58.9,93.2 61.4,97.4 74.2,90.6 96.2,78.9 97.1,75.1 97.8,72.4 92.7,75.1 		"/>
		<polygon class="st28" points="79.5,129.5 83.8,127.2 85.5,120.7 77.1,125.2 		"/>
		<polygon class="st28" points="82.1,134 83.4,128.8 80.1,130.5 		"/>
	</g>
</g>
<g id="Layer_3">
</g>
</svg>
