<?xml version="1.0" encoding="utf-8"?>
<!-- Generator: Adobe Illustrator 19.1.0, SVG Export Plug-In . SVG Version: 6.00 Build 0)  -->
<svg version="1.1" xmlns="http://www.w3.org/2000/svg" xmlns:xlink="http://www.w3.org/1999/xlink" x="0px" y="0px"
	 viewBox="0 0 150 150" style="enable-background:new 0 0 150 150;" xml:space="preserve">
<style type="text/css">
	.st0{opacity:0.6;}
	.st1{clip-path:url(#SVGID_2_);}
	.st2{fill:#446CB4;}
	.st3{fill:#F79C2F;stroke:#CC6633;stroke-width:2;stroke-miterlimit:10;}
	.st4{fill:#DB3535;}
	.st5{fill:#F79C2F;stroke:#CC6633;stroke-miterlimit:10;}
	.st6{fill:#391910;}
	.st7{fill:#FFFFFF;}
	.st8{fill:none;stroke:#391910;stroke-miterlimit:10;}
	.st9{fill:none;stroke:#000000;stroke-miterlimit:10;}
	.st10{fill:#AAAAAA;stroke:#888888;stroke-miterlimit:10;}
	.st11{fill:#3156F4;stroke:#FF002B;stroke-miterlimit:10;}
	.st12{fill:#446CB4;stroke:#DB4646;stroke-miterlimit:10;}
	.st13{fill:#66C3A2;stroke:#9072B3;stroke-miterlimit:10;}
	.st14{fill:#66C3A2;stroke:#9072B3;stroke-width:2;stroke-miterlimit:10;}
	.st15{stroke:#AAAAAA;stroke-width:2;stroke-miterlimit:10;}
	.st16{fill:none;stroke:#FFFFFF;stroke-miterlimit:10;}
	.st17{fill:#AAAAAA;stroke:#AAAAAA;stroke-miterlimit:10;}
	.st18{fill:#FFFFFF;stroke:#AAAAAA;stroke-miterlimit:10;}
	.st19{fill:#FFFFFF;stroke:#AAAAAA;stroke-width:2;stroke-miterlimit:10;}
	.st20{fill:none;stroke:#AAAAAA;stroke-miterlimit:10;}
	.st21{fill:#DB4646;stroke:#DB4646;stroke-miterlimit:10;}
	.st22{fill:#CC6633;}
	.st23{fill:#FF69B4;}
	.st24{fill:#AAAAAA;stroke:#888888;stroke-width:2;stroke-miterlimit:10;}
	.st25{fill:#66C3A2;}
	.st26{fill:#DB4646;}
	.st27{fill:#FFD528;}
	.st28{fill:#E284B6;}
	.st29{fill:none;}
	.st30{fill:#65BC4C;}
	.st31{fill:none;stroke:#000000;stroke-width:4;stroke-linecap:round;stroke-miterlimit:10;}
	.st32{fill:none;stroke:#FFFFFF;stroke-width:4;stroke-linecap:round;stroke-miterlimit:10;}
</style>
<g id="Layer_1">
</g>
<g id="Pattern">
</g>
<g id="Layer_3">
	<rect x="0" y="0" class="st30" width="150" height="150"/>
	<g>
		<line class="st32" x1="44.8" y1="13.1" x2="68.1" y2="5.8"/>
		<line class="st32" x1="98.2" y1="46.2" x2="116.5" y2="30"/>
		<line class="st32" x1="148.8" y1="36.7" x2="150" y2="38"/>
		<line class="st32" x1="115.5" y1="0" x2="107.4" y2="4.6"/>
		<line class="st32" x1="139.9" y1="27.6" x2="116.8" y2="19.5"/>
		<line class="st32" x1="138" y1="0" x2="142.7" y2="19.6"/>
		<line class="st32" x1="94.4" y1="15.7" x2="90.9" y2="36.4"/>
		<line class="st32" x1="80.9" y1="120.6" x2="97.1" y2="139"/>
		<line class="st32" x1="9.8" y1="144.4" x2="33.1" y2="137.1"/>
		<line class="st32" x1="59.1" y1="141.1" x2="39.5" y2="126.5"/>
		<line class="st32" x1="64.5" y1="149.4" x2="67.9" y2="125.2"/>
		<line class="st32" x1="72.7" y1="105.9" x2="93.4" y2="109.4"/>
		<line class="st32" x1="16.3" y1="107.3" x2="12.8" y2="128"/>
		<line class="st32" x1="124.9" y1="109.6" x2="141.1" y2="128"/>
		<line class="st32" x1="111.8" y1="52.4" x2="135.1" y2="45.1"/>
		<line class="st32" x1="132.6" y1="83.6" x2="137.5" y2="59.6"/>
		<line class="st32" x1="127.7" y1="143" x2="115.1" y2="150"/>
		<line class="st32" x1="108.5" y1="138.4" x2="111.9" y2="114.2"/>
		<line class="st32" x1="116.7" y1="94.9" x2="137.4" y2="98.4"/>
		<line class="st32" x1="136.8" y1="149.5" x2="137" y2="150"/>
		<line class="st32" x1="11.8" y1="82.4" x2="35.1" y2="75.1"/>
		<line class="st32" x1="10.3" y1="31.7" x2="8.4" y2="7.3"/>
		<line class="st32" x1="46.2" y1="117.5" x2="64.5" y2="101.3"/>
		<line class="st32" x1="0" y1="39.3" x2="15.1" y2="56.2"/>
		<line class="st32" x1="30.6" y1="26.6" x2="35.5" y2="2.6"/>
		<line class="st32" x1="76.7" y1="64" x2="55.4" y2="75.9"/>
		<line class="st32" x1="81.1" y1="51.1" x2="61.5" y2="36.5"/>
		<line class="st32" x1="44.6" y1="49" x2="54.5" y2="26.6"/>
		<line class="st32" x1="35.4" y1="56.7" x2="23.5" y2="35.3"/>
		<line class="st32" x1="87.9" y1="98.9" x2="64.8" y2="90.9"/>
		<line class="st32" x1="65.7" y1="15.9" x2="86.4" y2="19.4"/>
		<line class="st32" x1="106.3" y1="59.3" x2="102.8" y2="80"/>
		<line class="st32" x1="85.8" y1="70.5" x2="90.7" y2="90.9"/>
		<line class="st32" x1="40.4" y1="85" x2="36.9" y2="105.7"/>
	</g>
</g>
</svg>
