<?xml version="1.0" encoding="utf-8"?>
<!-- Generator: Adobe Illustrator 19.1.0, SVG Export Plug-In . SVG Version: 6.00 Build 0)  -->
<svg version="1.1" xmlns="http://www.w3.org/2000/svg" xmlns:xlink="http://www.w3.org/1999/xlink" x="0px" y="0px"
	 viewBox="0 0 150 150" style="enable-background:new 0 0 150 150;" xml:space="preserve">
<style type="text/css">
	.st2{fill:#FFD528;}
	.st8{fill:#FFFFFF;}
	.st28{fill:none;}
</style>
<g id="Pattern">
	<rect x="0" class="st2" width="150" height="150"/>
	<circle class="st8" cx="37.5" cy="37.5" r="14"/>
	<circle class="st8" cx="112.5" cy="37.5" r="14"/>
	<circle class="st8" cx="75" cy="75" r="14"/>
	<circle class="st8" cx="37.5" cy="112.5" r="14"/>
	<circle class="st8" cx="112.5" cy="112.5" r="14"/>
	<path class="st28" d="M149.9,136V89c-7.7-0.1-13.9-6.3-13.9-14s6.2-13.9,13.9-14V14c-7.5-0.1-13.7-6.1-13.8-13.6H88.9
		C88.8,7.9,82.6,14,75,14c-7.6,0-13.8-6.1-13.9-13.6H13.9C13.8,7.9,7.6,14,0,14c0,0-0.1,0-0.1,0V61c0,0,0.1,0,0.1,0
		c7.7,0,14,6.2,14,14S7.7,89,0,89c0,0-0.1,0-0.1,0V136c0,0,0.1,0,0.1,0c7.7,0,14,6.2,14,14c0,0.1,0,0.2,0,0.3h47.1
		c0-0.1,0-0.2,0-0.3c0-7.7,6.2-14,14-14c7.7,0,14,6.2,14,14c0,0.1,0,0.2,0,0.3h47.1c0-0.1,0-0.2,0-0.3
		C136,142.3,142.2,136.1,149.9,136z"/>
	<path class="st8" d="M13.9,0.3h-14V14c0,0,0.1,0,0.1,0C7.6,14,13.8,7.9,13.9,0.3z"/>
	<path class="st8" d="M75,14c7.6,0,13.8-6.1,13.9-13.6H61.1C61.2,7.9,67.4,14,75,14z"/>
	<path class="st8" d="M149.9,14V0.3h-13.8C136.2,7.9,142.4,13.9,149.9,14z"/>
	<path class="st8" d="M0,136c0,0-0.1,0-0.1,0v14.3h14c0-0.1,0-0.2,0-0.3C14,142.3,7.7,136,0,136z"/>
	<path class="st8" d="M75,136c-7.7,0-14,6.2-14,14c0,0.1,0,0.2,0,0.3h27.9c0-0.1,0-0.2,0-0.3C89,142.3,82.7,136,75,136z"/>
	<path class="st8" d="M149.9,136c-7.7,0.1-13.9,6.3-13.9,14c0,0.1,0,0.2,0,0.3h13.8V136z"/>
	<path class="st8" d="M14,75c0-7.7-6.2-14-14-14c0,0-0.1,0-0.1,0V89c0,0,0.1,0,0.1,0C7.7,89,14,82.7,14,75z"/>
	<path class="st8" d="M136,75c0,7.7,6.2,13.9,13.9,14V61C142.2,61.1,136,67.3,136,75z"/>
</g>
</svg>
