<?xml version="1.0" encoding="utf-8"?>
<svg version="1.1" xmlns="http://www.w3.org/2000/svg" xmlns:xlink="http://www.w3.org/1999/xlink" x="0px" y="0px"
	 viewBox="0 0 150 150" style="enable-background:new 0 0 150 150;" xml:space="preserve">
<style type="text/css">
	.st1{clip-path:url(#SVGID_2_);}
	.st2{fill:#DB4646;}
	.st3{fill:#446CB4;}
	.st4{fill:#FFD528;}
	.st5{fill:#E284B6;}
</style>

<g id="Pattern">
	<g>
		<rect x="0" class="st2" width="150" height="150"/>
		<g>
			<polygon class="st3" points="29,11.2 33.5,19.5 43.5,18 			"/>
			<polygon class="st4" points="10,54.7 5,57.5 10,63.5 			"/>
			<polygon class="st4" points="43.3,44.5 39.3,49 45,49 			"/>
			<polygon class="st5" points="14.8,38 18.3,32 11.8,35 			"/>
			<polygon class="st5" points="10,2.5 15,6.7 13.8,0 			"/>
			<polygon class="st5" points="41,88.7 47.3,90 43.5,96 			"/>
			<polygon class="st4" points="50,82 50,75 54,78.5 			"/>
			<polygon class="st5" points="18.3,108 24,113.5 27.5,108 			"/>
			<polygon class="st4" points="33.8,124.7 37.8,129 41,122.5 			"/>
			<polygon class="st3" points="11.8,74 27.5,80 22.9,71.2 			"/>
			<polygon class="st3" points="16.5,149.8 21.8,138.5 24.5,147.3 			"/>
			<polygon class="st4" points="100,4.7 105,7.5 100,13.5 			"/>
			<polygon class="st5" points="69,38.7 62.8,40 66.5,46 			"/>
			<polygon class="st4" points="60,32 60,25 56,28.5 			"/>
			<polygon class="st5" points="91.8,58 86,63.5 82.5,58 			"/>
			<polygon class="st4" points="76.3,74.7 72.3,79 69,72.5 			"/>
			<polygon class="st3" points="98.3,24 82.5,30 87.1,21.2 			"/>
			<polygon class="st3" points="93.5,99.7 88.3,88.5 85.5,97.2 			"/>
			<polygon class="st3" points="129,53.2 133.5,61.5 143.5,60 			"/>
			<polygon class="st4" points="110,96.7 105,99.5 110,105.5 			"/>
			<polygon class="st4" points="143.3,86.5 139.3,91 145,91 			"/>
			<polygon class="st5" points="114.8,80 118.3,74 111.8,77 			"/>
			<polygon class="st5" points="110,44.5 115,48.7 113.8,42 			"/>
			<polygon class="st5" points="141,130.8 147.3,132 143.5,138 			"/>
			<polygon class="st3" points="111.8,116 127.5,122 122.9,113.2 			"/>
			<polygon class="st3" points="73,120.2 68.5,128.5 58.5,127 			"/>
			<polygon class="st5" points="87.3,147 83.8,141 90.3,144 			"/>
			<polygon class="st5" points="92,111.5 87,115.7 88.3,109 			"/>
			<polygon class="st4" points="137.8,3.7 141.8,8 145,1.5 			"/>
			<polygon class="st3" points="120.5,28.7 125.8,17.5 128.5,26.2 			"/>
			<polygon class="st4" points="11,132.8 16,135.5 11,141.5 			"/>
			<polygon class="st5" points="6.3,116 2.8,110 9.3,113 			"/>
			<polygon class="st5" points="11,80.5 6,84.7 7.3,78 			"/>
			<polygon class="st5" points="148,36.7 141.8,38 145.5,44 			"/>
			<polygon class="st4" points="139,30 139,23 135,26.5 			"/>
		</g>
	</g>
</g>
</svg>
